<?xml version="1.0" standalone="no"?><!DOCTYPE svg PUBLIC "-//W3C//DTD SVG 1.1//EN" "http://www.w3.org/Graphics/SVG/1.1/DTD/svg11.dtd"><svg t="1732889347885" class="icon" viewBox="0 0 1024 1024" version="1.1" xmlns="http://www.w3.org/2000/svg" p-id="2138" xmlns:xlink="http://www.w3.org/1999/xlink" width="200" height="200"><path d="M536.57337995 416.80390132c1.58549838-92.59897202 12.51476585-173.6948065 32.79148469-243.28014481 15.62690417-53.65678487 37.53326407-96.51673337 72.7379415-135.61342297 18.61396849-20.66665503 47.66794346-38.96793632 74.11375684-30.33046843 24.35266192 7.95324105 23.45507121 52.73344497 20.22521603 81.40852016-9.84406651 87.50404203-25.68433303 137.43435508-45.40557386 178.86330916-24.1172282 50.65500778-38.11081198 88.57452875-82.65926 172.96275465" fill="#bfbfbf" p-id="2139"></path><path d="M544.08518349 415.46487309c3.17099674-91.62780864 15.36204195-171.56118868 36.54002785-239.78542743 16.62749751-53.5721758 38.96057921-93.96375091 72.62758178-130.05866193 19.99713945-21.43917028 44.55948445-32.4971925 62.95273343-26.13312915 12.59937495 4.35920033 16.37734807 32.24704454 11.47002978 69.89434619-10.18986 78.20073635-24.66534617 128.74170509-47.45458109 174.54457372a1691.09001121 1691.09001121 0 0 0-15.64529768 32.38315346l-4.1127302 8.71840066c-26.53042244 56.40841547-38.7840039 81.08847734-65.70068473 129.98876711a11.0359494 11.0359494 0 1 0 19.33498243 10.63865608c27.18890015-49.39323004 39.62273621-74.43747745 66.33709108-131.23583058l4.09433813-8.68897072a1712.42250106 1712.42250106 0 0 1 15.45032883-31.96746663c23.94065291-48.11673956 39.0930103-101.00836482 49.58451962-181.53400849 2.45733843-18.83468651 3.09006548-36.41495387 1.06680889-51.36866461-2.90613306-21.48331447-11.2493103-36.71292532-27.20729369-42.23089927-28.45435569-9.84774581-61.00672735 4.81167425-86.30480203 31.93435737-36.05076833 38.65525211-59.99877836 81.96031741-77.5680093 138.57473667-21.79600018 70.22910324-34.28501536 152.07538161-37.52222767 245.56826506a11.0359494 11.0359494 0 1 0 22.05718457 0.76148032z" fill="#524F75" p-id="2140"></path><path d="M546.83313478 773.81318203l54.92224045-11.49210114c46.87335536-9.81463804 92.82704864 20.23257315 102.63800735 67.1059285 1.22499068 5.84169609 1.83932416 11.79742972 1.83932565 17.76787908 0 58.95036301-47.78933962 106.74338044-106.74338044 106.74337895h-49.83834686c-45.1738194 0-81.79477707-36.62095911-81.79477851-81.79845487v-1.1109531c0-47.01314358 32.96070139-87.58497183 78.97693236-97.21567742z" fill="#FAF1E1" p-id="2141"></path><path d="M549.09182511 784.6136977C508.18891909 793.17759441 478.89215181 829.23939769 478.89215181 871.03253876v1.10727379c0 39.07829607 31.68053158 70.75882767 70.75882912 70.75882766h49.83834686c52.85851894 0 95.70743105-42.84891207 95.70743104-95.70743105 0-5.21264686-0.53708301-10.40690018-1.6075712-15.50550946-8.56021742-40.9102646-48.66485749-67.13535846-89.57512063-58.57146028l-54.92224189 11.49945828z m-4.52105993-21.60470918l54.92224044-11.49578042c52.84012542-11.05434293 104.64287188 22.81498558 115.70089264 75.65511099 1.37949313 6.58478287 2.07108007 13.29463971 2.07108007 20.02656938 0 65.04588487-52.73344497 117.77932983-117.77932983 117.77932836h-49.83466757c-51.26934129 0-92.83072645-41.56506299-92.83072792-92.83440428v-1.1109531c0-52.23682685 36.62463693-97.31132147 87.75051217-108.01987093z" fill="#524F75" p-id="2142"></path><path d="M525.05552815 910.81713602c57.38693599-11.46635197 98.65035117-18.0842426 123.79759973-19.84999409 21.37295473-1.50088929 48.3999953-0.7136583 81.09215665 2.36169294A39.5859506 39.5859506 0 0 1 765.82683321 932.741888c0 19.55570193-15.85498077 35.41068269-35.4106827 35.4106827h-204.95597047a26.0558757 26.0558757 0 0 1-26.05587715-26.0558757 31.9049289 31.9049289 0 0 1 25.65122526-31.27955898z" fill="#FAF1E1" p-id="2143"></path><path d="M510.44393159 942.096695A15.0199263 15.0199263 0 0 0 525.46385789 957.11662131h204.95597192a24.37473329 24.37473329 0 0 0 24.37105401-24.37473331 28.55367904 28.55367904 0 0 0-25.87930041-28.42860506c-32.13668479-3.02384993-58.5935331-3.79268737-79.28593879-2.34330085-24.55866571 1.72896588-65.45053677 8.28431878-122.40707019 19.66974095a20.85794454 20.85794454 0 0 0-16.77464284 20.45697196z m137.63668104-62.13975181c22.04614814-1.55239059 49.65441444-0.74676609 82.89837154 2.38008646A50.62557782 50.62557782 0 0 1 776.86278261 932.741888c0 25.65122528-20.791729 46.4466321-46.4466321 46.4466321h-204.95597047c-20.48272261 0-37.09182511-16.60910398-37.09182655-37.0918251a42.93352118 42.93352118 0 0 1 34.52044909-42.09846818c57.81733854-11.55831815 99.45597567-18.23506724 125.19181005-20.04128363z" fill="#524F75" p-id="2144"></path><path d="M754.05883344 921.63972304h-33.04898976a11.03962723 11.03962723 0 0 0 0 22.07189882h33.04898976a11.0359494 11.0359494 0 0 0 0-22.07189882z" fill="#524F75" p-id="2145"></path><path d="M611.3235431 728.60993413l71.50927304-10.37011312c19.12162153-2.21454759 36.41127604 11.53624532 38.61846504 30.71304602 0.15082465 1.32799329 0.2280766 2.66702151 0.22807661 4.00237042 0 19.30187466-15.60483281 34.94717235-34.85520614 34.94717386a35.42539692 35.42539692 0 0 1-3.99501334-0.22807663l-66.18626643-5.66880008" fill="#FAF1E1" p-id="2146"></path><path d="M612.90904147 739.53184448l71.51295087-10.3701131c12.73916463-1.4677815 24.55866571 7.92749038 26.06691359 21.04923408 0.10668045 0.91230497 0.15818176 1.82828922 0.15818175 2.74427199 0 13.2137099-10.66808458 23.91122297-23.81925822 23.91122445-0.90862714 0-1.81725281-0.05150132-2.72220064-0.15818175l-66.51734419-5.70190786a11.02859228 11.02859228 0 0 0-11.93354012 10.05374959 11.02859228 11.02859228 0 0 0 10.05007028 11.93354011l66.18626792 5.66880009c1.42363731 0.17289601 3.17835386 0.27222081 4.93674675 0.27221932 25.35325382 0 45.89115555-20.59308087 45.89115701-45.98312175 0-1.76207367-0.09932333-3.51678875-0.30164928-5.267826-2.90245524-25.22082271-25.66593952-43.32345884-50.84629731-40.40628936l-71.82931585 10.41057801a11.0359494 11.0359494 0 0 0 3.16731744 21.84382218z" fill="#524F75" p-id="2147"></path><path d="M237.94059215 795.25603159h7.35729963c25.39371871 0 45.98312176 20.58940304 45.98312175 45.98312175s-20.58940304 45.98312176-45.98312175 45.98312325h-7.35729963c-25.39371871 0-45.98312176-20.58940304-45.98312174-45.98312325s20.58940304-45.98312176 45.98312174-45.98312175z" fill="#FAF1E1" p-id="2148"></path><path d="M237.94059215 806.291981a34.94717235 34.94717235 0 0 0 0 69.8943462h7.35729963a34.94717235 34.94717235 0 0 0 0-69.8943462h-7.35729963z m0-22.0718988h7.35729963c31.49292134 0 57.01907116 25.52615129 57.01907114 57.01907114s-25.52615129 57.01907116-57.01907114 57.01907116h-7.35729963c-31.49292134 0-57.01907116-25.52615129-57.01907116-57.01907116s25.52615129-57.01907116 57.01907116-57.01907114z" fill="#524F75" p-id="2149"></path><path d="M621.44718755 710.44843956h80.25342287c12.04022057 0 24.01790489-1.64067751 35.61300865-4.88524692 70.10770708-19.61456036 107.26574774-89.7112325 101.50498291-159.80054458l-6.50385306-34.21144269c-22.6457674-80.49253591-103.48409678-140.69731804-167.16888059-161.40811576s-115.52799517-22.35147525-180.66216843-8.44985917-155.89381964 71.3989133-174.55561013 175.02279832l-0.93437631 5.18321838a159.98079917 159.98079917 0 0 0-2.53091112 28.31824529c0 37.83491334 29.08708422 90.36603089 59.90681068 119.56347486-49.84202614 20.46800689-99.17639777 59.19315385-115.09023696 113.09272955a101.14447521 101.14447521 0 0 0-4.14215867 28.65300238c0 56.02583639 45.54536207 101.44612448 101.72570095 101.44612448h221.67175634c10.5025457 0 20.94255364-1.65539174 30.92273057-4.91099758 52.2515411-17.03214794 80.76475523-73.0800557 63.68478378-125.18445144a188.25122246 188.25122246 0 0 0-43.69500148-72.42893512z" fill="#bfbfbf" p-id="2150"></path><path d="M675.6336983 779.4378379c18.97815403 57.90930477-12.70605685 120.19620191-70.75514835 139.11181969a110.85243133 110.85243133 0 0 1-34.34387527 5.45543768h-221.67175634C286.59441472 924.00877311 236.10126799 873.65541609 236.10126799 811.53037852c0-10.76005076 1.54503346-21.4612431 4.59463261-31.77985491 14.28787594-48.38895888 54.54701847-88.51567031 106.81327526-113.64820614-29.44391264-33.26235065-52.0786451-80.90454494-52.07864509-115.88482504 0-10.15307292 0.90494785-20.28407447 2.70380859-30.2716085l0.93069702-5.18689621c9.13040821-50.70650762 35.18260609-93.97478734 73.43688558-127.49832235 32.46408475-28.44699857 72.4657222-48.41838882 109.67526416-56.36059348 68.18745166-14.55273814 121.89573783-12.22415298 186.38246981 8.74782914 77.52386512 25.21346559 152.89939819 92.56586425 174.37903337 168.91256073l6.82757518 35.71233197c6.52960373 79.40365566-37.04400306 151.65233617-109.48029679 171.91434076a143.23190698 143.23190698 0 0 1-38.58535727 5.29357665h-56.32380638a199.25774337 199.25774337 0 0 1 30.25689426 57.95712676z m145.92835844-265.3520436c-19.46741502-68.38609979-88.97550134-130.40813471-159.82997599-153.44751762-60.7271509-19.75067075-110.4956029-21.91003773-174.94554634-8.15188768-33.53824928 7.15865294-70.11874351 25.41579154-99.73555214 51.37234391-34.64184525 30.3598969-58.05645009 69.24690343-66.25983909 114.81065904l-0.93437779 5.18321691a148.73884598 148.73884598 0 0 0-2.35433582 26.36488357c0 32.62226651 25.79101349 82.50107824 56.45991679 111.55137538l12.38969186 11.73489346-15.78876376 6.48545955c-53.67150059 22.03879102-95.24024287 60.42182234-108.70042292 106.00764929a90.17474137 90.17474137 0 0 0-3.68968475 25.52615128C258.17316679 861.44965515 298.77074569 901.93687431 348.86291834 901.93687431h221.67175634c9.34377058 0 18.62500345-1.47513861 27.50526513-4.37023527 46.4576685-15.14132245 71.79988589-64.95024083 56.62177636-111.25340541a177.14537969 177.14537969 0 0 0-41.14569683-68.18745165l-18.11735037-18.7132918h106.30194145c11.0359494 0 22.01304036-1.5045671 32.64066003-4.48059504 61.44816633-17.19400899 98.92992763-79.09464924 93.51863409-147.69043063l-6.2978478-33.15567021z" fill="#524F75" p-id="2151"></path><path d="M600.92032224 758.46953359c25.06631877 0 45.6078998 19.90885252 46.39145148 44.96781566l0.76148032 24.40048394c0.99323475 31.79089133-23.97376069 58.3654565-55.76097274 59.35869274-0.59594144 0.01839355-1.19924 0.02942847-1.79518144 0.02942848-27.08957682 0-49.05111587-21.96153905-49.05111587-49.05111589 0-3.11949543 0.29429216-6.22795445 0.88655579-9.28858994l5.06182221-26.23980959A54.48816004 54.48816004 0 0 1 600.92032224 758.46953359zM674.09602342 556.14379758h58.75171487c28.44331929 0 51.50109718 23.05777644 51.5010972 51.50109574 0 3.46896672-0.3531506 6.93425414-1.04841536 10.34068462l-0.14346753 0.69526477a78.23384412 78.23384412 0 0 1-76.64834575 62.53704658h-5.67615719a79.06889859 79.06889859 0 0 1-77.31786135-62.53704658c-5.97044788-27.93566623 11.83421678-55.42253785 39.76988303-61.39298573a51.61881406 51.61881406 0 0 1 10.81155208-1.1440594z" fill="#FFFFFF" p-id="2152"></path><path d="M726.07902303 563.50109718c6.65835552 0.05150132 14.33937725 1.34638535 23.0504193 3.89569001 9.05683555 2.54930464 16.69739087 7.95324105 16.69739088 17.91502442 0 0.7136583-0.04782202 1.43467373-0.13978823 2.14833054-1.5119257 11.51785181-12.19104519 20.18475115-24.87870853 20.18475117h-22.25950903c-13.59261116 0-25.54454336-8.23281749-29.3004466-20.18475117-2.63759155-8.39835783 2.67437863-17.1535441 11.84893104-19.57041616 2.53826823-0.67319342 12.03654274-4.480595 24.98171117-4.38862881z" fill="#8B674F" p-id="2153"></path><path d="M711.08116807 576.43522918c-2.07108007 0.5334037-6.98207764 2.07475791-7.16601006 2.12258138-3.28135502 0.86448295-4.82270919 3.4101083-4.13480154 5.59522593 2.26604889 7.22118919 9.86981717 12.45958671 18.77214877 12.45958671h22.25951051c7.3168347 0 13.16956572-4.74913651 13.93472534-10.58715329a5.11332353 5.11332353 0 0 0 0.04782202-0.70998048c0-3.20778235-2.43526559-5.54372462-8.75886556-7.32419184-7.78770215-2.27708384-14.48652258-3.40642899-20.0302472-3.45057317a57.46786725 57.46786725 0 0 0-14.92428228 1.89450476z m41.04269571-19.66606167c14.72931344 4.15319508 24.73892031 13.7434358 24.73891883 28.5426441 0 1.19556071-0.07725197 2.3948007-0.23175444 3.58300428-2.25501249 17.20136612-17.76787909 29.7897061-35.81901242 29.7897061h-22.25951051c-18.29024637 0-34.58666464-11.23091822-39.82873998-27.91727269-4.58359763-14.60423946 4.48795212-29.57634374 19.56673686-33.54928568a140.23012841 140.23012841 0 0 1 7.29108405-2.15936845 79.49929967 79.49929967 0 0 1 20.58204593-2.58976955c7.76562933 0.05517914 16.43620649 1.51928282 25.96023168 4.30034189z" fill="#524F75" p-id="2154"></path><path d="M710.65812262 491.2524152a56.50406097 56.50406097 0 1 0 113.00812197 0 56.50406097 56.50406097 0 1 0-113.00812197 0Z" fill="#FFFFFF" p-id="2155"></path><path d="M767.16218362 558.79610338C729.85699614 558.79610338 699.61113829 528.55392336 699.61113829 491.2524152S729.85699614 423.71240629 767.16218362 423.71240629s67.55104532 30.23850074 67.55104531 67.54000891c0.0036793 37.30150817-30.24218002 67.5436882-67.55104531 67.54368818z m0-22.07189879c25.11782007 0 45.47914651-20.35764715 45.47914651-45.4681101S792.2800037 445.78430361 767.16218362 445.78430361 721.68303708 466.14195222 721.68303708 491.2524152s20.36132644 45.47178939 45.47914654 45.47178939z" fill="#524F75" p-id="2156"></path><path d="M781.27348425 508.92464876a18.16517238 18.16517238 0 1 0-4.41437947-12.24254651l13.4675357 1.9570425-9.05315623 10.28550401z" fill="#232323" p-id="2157"></path><path d="M592.94133054 492.08746819a61.01776377 61.01776377 0 1 0 122.03552752 0 61.01776377 61.01776377 0 1 0-122.03552752 0Z" fill="#FFFFFF" p-id="2158"></path><path d="M653.95909429 564.14118137C614.15978281 564.14118137 581.8943462 531.87942404 581.8943462 492.08379036 581.8943462 452.29183597 614.15978281 420.03375649 653.95909429 420.03375649c39.79931151 0 72.06474959 32.25807948 72.06474958 72.05003387 0 39.79563367-32.26543661 72.057391-72.06474958 72.05739101z m0-22.07189883c27.61194559 0 49.99285078-22.38090518 49.99285079-49.98181435S681.57103988 442.1056538 653.95909429 442.1056538 603.96624351 464.48288119 603.96624351 492.08379036s22.38090518 49.98549366 49.99285078 49.98549218z" fill="#524F75" p-id="2159"></path><path d="M658.63833744 514.31387092a19.2393384 19.2393384 0 0 0 14.58952374 6.67306977 19.26876689 19.26876689 0 1 0 0-38.53753377 19.27244618 19.27244618 0 0 0-19.26876689 18.87883068l14.29155376 2.07475791-9.61231061 10.91087541z" fill="#232323" p-id="2160"></path><path d="M718.00438729 622.35949249v25.75054861a11.03962723 11.03962723 0 0 0 22.07189732 0v-25.75054861a11.03962723 11.03962723 0 0 0-22.07189732 0z" fill="#524F75" p-id="2161"></path><path d="M487.41926294 832.35153599c1.17716863 5.6687986 1.76943081 11.44427913 1.76942931 17.23447389 0 57.7879086-47.13821758 104.63183546-105.29031317 104.63183547h-52.45754488C286.91445754 954.21784535 250.8158672 918.34365232 250.8158672 874.09317427v-3.60875495c0-30.64315263 14.88013808-58.39120716 38.44924687-75.69189805" fill="#bfbfbf" p-id="2162"></path><path d="M476.61506796 834.59183425c1.026344 4.93674823 1.54135417 9.95810556 1.54135418 14.99417563 0 51.67767247-42.18307726 93.59588607-94.25436376 93.59588608H331.4408342C292.99158587 943.18189596 261.8518166 912.23341622 261.8518166 874.09317427v-3.60875495c0-26.5414574 12.72077109-51.22151926 33.94290117-66.79324427a11.0359494 11.0359494 0 1 0-13.05552814-17.79362827C255.89608148 805.59671621 239.7799178 836.85052454 239.7799178 870.48074151v3.60875494c0 50.36071563 41.05373065 91.16062047 91.6609164 91.16061901h52.46122418c64.22922541 0 116.32626256-51.7696387 116.32626256-115.66778339 0-6.54063867-0.6695141-13.0739217-2.00118522-19.47845144a11.0359494 11.0359494 0 0 0-21.61206776 4.48795362z" fill="#524F75" p-id="2163"></path><path d="M423.71240629 710.64708768m-14.7145992 0a14.71459921 14.71459921 0 1 0 29.42919692 0 14.71459921 14.71459921 0 1 0-29.42919692 0Z" fill="#524F75" p-id="2164"></path><path d="M307.52225265 912.0494838c57.64076325-11.30081161 99.07339515-17.82305821 124.29421786-19.55570342 21.53113649-1.48249573 48.80832501-0.69158546 81.8278863 2.3800865A38.7361819 38.7361819 0 0 1 548.78649801 933.44083205 34.71173861 34.71173861 0 0 1 514.07475791 968.1525707H307.90483319a25.53718624 25.53718624 0 0 1-25.53718769-25.53718623 31.14344857 31.14344857 0 0 1 25.15460715-30.56590067z" fill="#FAF1E1" p-id="2165"></path><path d="M293.40359489 942.61538447A14.497559 14.497559 0 0 0 307.90483319 957.11662131h206.16992472A23.67578924 23.67578924 0 0 0 537.7505486 933.44083205a27.69287539 27.69287539 0 0 0-25.13253579-27.5788378c-32.47511968-3.02017211-59.18211743-3.80004449-80.04741911-2.36537222-24.64327481 1.69953594-65.70436403 8.15924481-122.92943895 19.37912663a20.11117847 20.11117847 0 0 0-16.23755986 19.73963581z m137.65139529-61.13548063c22.19697277-1.53031778 50.04067281-0.71733613 83.60835204 2.40215782C540.25202976 886.26582742 559.82244739 907.73810548 559.82244739 933.44083205 559.82244739 958.70947677 539.33972479 979.1885201 514.07475791 979.1885201H307.90483319c-20.19946538 0-36.57313563-16.37367024-36.57313709-36.57313563 0-20.16635761 14.2731617-37.51487055 34.06797517-41.39584628 58.0601294-11.38542069 99.86062611-17.96284644 125.65531891-19.73963435z" fill="#524F75" p-id="2166"></path><path d="M537.01849675 922.34602425h-33.04898976a11.0359494 11.0359494 0 1 0 0 22.07189879h33.04898976a11.03962723 11.03962723 0 0 0 0-22.07189879z" fill="#524F75" p-id="2167"></path><path d="M364.20656675 682.69670574c6.58110505 5.37082862 11.14630914 9.06787195 13.73239939 11.11688067 5.97780649 4.74177939 11.34127649 8.01945661 16.33320535 9.79992233a11.0359494 11.0359494 0 1 0 7.42351513-20.78437043c-2.36905006-0.84241011-5.79387406-2.93924083-10.04271317-6.30888422a1392.65219078 1392.65219078 0 0 1-13.48960853-10.92559114 11.0359494 11.0359494 0 1 0-13.95679817 17.10204279z" fill="#524F75" p-id="2168"></path><path d="M442.51030573 463.89797616l-3.44321608-4.59095475m-16.76728571-22.95845312c-44.48958959-58.99450573-78.87760757-116.06140037-103.16405398-171.20436027-22.51701559-51.12587377-32.80987675-102.98747868-30.87490708-155.57745612 1.01898541-27.81059225 18.39324898-52.46122416 44.3166936-62.88651788 23.87443735-9.60127567 51.19576862-2.57505531 67.34504155 17.31908297 52.62308523 64.83988109 86.26433713 131.83177202 94.68108703 174.43053617 8.54918249 43.29035107 17.87823734 84.50594276 33.42053389 156.17339755" fill="#bfbfbf" p-id="2169"></path><path d="M451.67014387 457.18076073l-3.43953823-4.58727547a11.0359494 11.0359494 0 1 0-17.65384004 13.24681768l3.44689536 4.58727547a11.03227011 11.03227011 0 1 0 17.64648291-13.24313839z m-20.22521602-27.57147923c-43.99665078-58.33970733-77.94323126-114.68190577-101.86549064-169.0045284-21.85117931-49.62498595-31.8203198-99.8238405-29.95156717-150.72531549 0.86448295-23.44771409 15.52390154-44.24679874 37.41186791-53.04613067 19.39384087-7.79873709 41.56138516-2.09683071 54.65737822 14.03404867 48.73475236 60.04660037 83.82539223 126.05629151 92.42239674 169.60782696 0.43408039 2.21454759 0.87919718 4.44013012 1.32431398 6.67674906 1.46042438 7.28372692 2.97970573 14.71459921 4.6093483 22.52805055 3.1930681 15.32157558 6.62156992 31.26852255 11.92250371 55.5843989l7.22119067 33.07106112c3.14524608 14.41662773 5.71294279 26.22141605 8.38364213 38.5154624a11.0359494 11.0359494 0 1 0 21.56792355-4.67188455c-2.66702151-12.30508278-5.23839751-24.12458532-8.38732143-38.54489237l-7.22118918-33.07106112a5880.87344473 5880.87344473 0 0 1-11.8746817-55.38575076c-1.61860614-7.7619515-3.12685255-15.13396534-4.57624051-22.36251165-0.4451168-2.21454759-0.88287648-4.4217366-1.31695688-6.61789212-9.38055617-47.51711881-46.11187504-116.62423402-96.93242022-179.23853111-19.20990845-23.66107499-51.67399319-32.01161082-80.03638416-20.6114744-29.96260211 12.05125698-50.04802992 40.54975687-51.2325542 72.71954944-1.99382811 54.28583409 8.62643298 107.80283074 31.80560555 160.43327309 24.65063191 55.96697797 59.47273029 113.75856587 104.44790305 173.39683502a11.03227011 11.03227011 0 1 0 17.62073228-13.28728257z" fill="#524F75" p-id="2170"></path><path d="M364.49350178 149.96936196a26.68492493 26.68492493 0 0 1 33.79207657 11.05066365c27.70023251 47.73048118 44.75077396 84.58687254 51.17001795 110.56917706 6.90482566 27.96509618 19.86470833 73.49206473 38.87229229 136.57354995a13.63307605 13.63307605 0 0 1-7.12554368 16.20813137 17.07997142 17.07997142 0 0 1-19.14369439-2.95395508c-45.85804778-43.2130991-77.55697289-84.73769718-95.10413248-124.58115289-15.43929244-35.05017499-23.59853874-72.49882996-24.48141372-112.34964278a36.79385513 36.79385513 0 0 1 22.02039746-34.51677128z" fill="#1296db" p-id="2171"></path><path d="M520.21442543 622.63907043c17.8120218-12.47062313 42.36333039-8.14085127 54.8339535 9.67117052 1.14038157 1.61860614 2.14833203 3.32917851 3.02752777 5.09860781l63.21391782 127.5571808a20.14796407 20.14796407 0 0 1-6.49281665 25.44154221 19.68813302 19.68813302 0 0 1-25.83883552-2.8656682l-95.4241753-104.76426656c-14.98681853-16.45092221-13.80229424-41.93660711 2.64862796-56.91607 1.28016979-1.15877511 2.62287731-2.24029825 4.03180042-3.22249658z" fill="#FF7E3C" p-id="2172"></path><path d="M524.43015822 628.66837674a32.92391579 32.92391579 0 0 0-5.45175987 49.1541185l95.42417529 104.76058875a12.31611919 12.31611919 0 0 0 16.17134429 1.79517997 12.77595023 12.77595023 0 0 0 4.12376659-16.14191434l-63.2139178-127.56086009a32.01161082 32.01161082 0 0 0-47.0536085-12.00711279z m-8.43882273-12.05861409c21.137521-14.79920829 50.28346365-9.66381339 65.08634976 11.47738836 1.34638535 1.92393325 2.54930464 3.95086912 3.5903629 6.05505697l63.21391634 127.5571808a27.49422873 27.49422873 0 0 1-8.86922382 34.73381147 27.0307184 27.0307184 0 0 1-35.49161249-3.94351349l-95.42417529-104.75323015c-17.72005559-19.4600579-16.31848963-49.595556 3.13788749-67.31561161 1.5045671-1.3758153 3.09006548-2.64862798 4.75649511-3.81108235z" fill="#524F75" p-id="2173"></path><path d="M427.64856118 595.92103775a18.79054231 18.79054231 0 0 1 27.19625726-6.26106223l54.93695614 38.41981837-5.95205582 13.15485149-66.44009369-20.8726588a16.97696881 16.97696881 0 0 1-9.74106389-24.44094883z" fill="#62CCA3" p-id="2174"></path><path d="M450.2097195 596.04611171a11.43692201 11.43692201 0 0 0-16.4803507 4.10169377 9.61598991 9.61598991 0 0 0 5.7534077 13.73975653l66.79324428 19.71020584-8.83243821 4.14216015 5.7203014-13.25049698 2.64126936 9.01269133-55.59543383-37.45601064z m5.92262585-13.5778969c0.79091027 0.41936615 1.55606841 0.87919718 2.29915668 1.37949312l60.66093536 40.86979969-10.71958588 24.84192145-73.05062721-21.55320932a24.32691129 24.32691129 0 0 1-14.57481098-34.78531131 26.15520049 26.15520049 0 0 1 35.38861133-10.75269363z" fill="#524F75" p-id="2175"></path><path d="M521.11569397 525.61836182a18.78686449 18.78686449 0 0 0-15.18546664 23.41092701l17.31172584 64.75894984 14.39455639-1.09255809 3.1121383-69.57062554a16.96961168 16.96961168 0 0 0-19.63295389-17.51037252z" fill="#62CCA3" p-id="2176"></path><path d="M534.21904414 544.3132601c0-0.3899362-0.02207136-0.77987386-0.06989338-1.16613224a11.43692201 11.43692201 0 0 0-12.55155291-10.20089639 9.60127567 9.60127567 0 0 0-8.17028124 12.45958671l21.01244702 66.39227169-8.37260719-5.01032091 14.18487332-2.6670215-5.99619855 7.23222561-0.03678707-67.03971297z m-14.133372-26.00437585a26.14416409 26.14416409 0 0 1 28.84429337 26.00069655l0.0367856 73.14259342-26.59295869 4.9992845-22.97316737-72.60918825a24.32323199 24.32323199 0 0 1 20.68504709-31.53338622z" fill="#524F75" p-id="2177"></path><path d="M457.97902812 545.0673833a24.24965932 24.24965932 0 0 1 37.0513602 8.22546037l31.22070053 64.06368504-10.77844283 9.59391856-57.06689462-44.08493768a24.09515537 24.09515537 0 0 1-0.42672328-37.79812629z" fill="#62CCA3" p-id="2178"></path><path d="M488.40514055 556.52637666a16.88868042 16.88868042 0 0 0-28.52792837-2.95027726 16.73785579 16.73785579 0 0 0 3.01649281 23.46978547l52.23682538 40.35846734 2.05636583-1.83196852-28.78175565-59.04600703z m-35.05753209-17.17929475a31.60695891 31.60695891 0 0 1 48.28227842 10.73430012l33.66700258 69.07032812-19.51155922 17.35587006-61.88960383-47.81509027a31.45245497 31.45245497 0 0 1-0.55179725-49.34172873z" fill="#524F75" p-id="2179"></path><path d="M505.84929753 720.08650228l72.25971693 0.94173494c19.23198128 0.80562451 34.15626355 17.09100637 33.33592481 36.37080966a35.39596845 35.39596845 0 0 1-0.39729479 3.99501333c-3.01649281 19.06276311-20.8800159 32.07414708-39.89127771 29.06133355a35.3702178 35.3702178 0 0 1-3.90672642-0.85344652l-64.48673048-15.95062481" fill="#FAF1E1" p-id="2180"></path><path d="M505.33796517 732.00900601l72.25971695-0.32004281c12.82377373 0.32004283 23.21963748 11.26770383 22.88488043 24.47037878-0.02207136 0.91966209-0.09564549 1.83196705-0.22439732 2.74059417-1.83932416 13.08495664-13.89426044 22.18961565-26.91300152 20.36132645a23.15342194 23.15342194 0 0 1-2.67805793-0.53708301l-65.07163552-14.90220944a11.0359494 11.0359494 0 1 0-4.92571182 21.51274297l64.755272 14.82863677c1.38317242 0.36786484 3.10845901 0.70997901 4.85213915 0.95644914 25.09942802 3.52782516 48.30434979-14.01197731 51.83953207-39.15186876 0.24279085-1.74368013 0.38625837-3.4983952 0.43040256-5.26046886 0.64008562-25.37900446-19.38280592-46.47238275-44.72502332-47.09407485l-72.57976123 0.31636352a11.0359494 11.0359494 0 0 0 0.0956455 22.07925593z" fill="#524F75" p-id="2181"></path></svg>