<?xml version="1.0" standalone="no"?><!DOCTYPE svg PUBLIC "-//W3C//DTD SVG 1.1//EN" "http://www.w3.org/Graphics/SVG/1.1/DTD/svg11.dtd"><svg height="91" node-id="1" sillyvg="true" template-height="91" template-width="80" version="1.1" viewBox="0 0 80 91" width="80" xmlns="http://www.w3.org/2000/svg" xmlns:xlink="http://www.w3.org/1999/xlink"><defs node-id="15"></defs><g node-id="35"><path d="M 75.90 65.30 L 73.50 70.00 L 70.90 74.10 L 68.10 77.50 L 65.10 80.50 L 61.90 83.00 L 58.40 85.10 L 54.70 86.70 L 51.30 87.70 L 44.70 88.80 L 39.80 88.80 L 31.00 87.70 L 22.00 85.10 L 20.00 84.30 L 15.50 81.40 L 11.80 78.40 L 8.80 75.40 L 6.30 72.20 L 4.40 69.00 L 3.10 65.70 L 2.20 62.20 L 1.80 59.20 L 2.00 53.70 L 2.80 49.70 L 3.90 46.10 L 6.70 39.90 L 10.60 33.90 L 9.40 28.60 L 8.60 21.70 L 8.70 18.00 L 9.70 13.30 L 10.60 11.30 L 11.80 9.70 L 13.20 8.50 L 14.90 7.50 L 19.00 6.70 L 21.20 6.80 L 23.70 7.40 L 26.00 8.30 L 28.00 9.70 L 30.60 12.10 L 34.40 17.60 L 36.30 22.10 L 37.70 21.60 L 36.30 18.40 L 32.80 12.60 L 30.50 10.00 L 32.40 6.90 L 34.20 4.80 L 36.10 3.30 L 39.40 1.90 L 41.90 1.80 L 44.90 2.10 L 47.50 2.90 L 49.70 4.20 L 53.50 7.80 L 56.90 13.50 L 59.40 20.20 L 60.50 25.50 L 64.50 29.00 L 70.90 36.00 L 75.00 42.50 L 76.60 46.10 L 77.60 49.80 L 78.20 53.60 L 78.30 56.70 L 77.90 59.60 L 77.10 62.50 L 75.90 65.30 Z" fill="#ffffff" fill-rule="nonzero" group-id="1" node-id="19" stroke="none" target-height="87" target-width="76.5" target-x="1.8" target-y="1.8"></path><path d="M 37.00 21.80 L 35.40 18.10 L 32.30 13.00 L 28.40 9.00 L 24.30 6.80 L 22.10 6.20 L 19.50 6.00 L 16.70 6.30 L 14.40 7.00 L 12.60 8.00 L 10.00 10.90 L 8.50 14.60 L 7.90 17.80 L 7.80 21.10 L 8.40 27.20 L 9.80 33.70 L 7.20 37.40 L 4.10 43.50 L 2.60 47.40 L 1.60 51.60 L 1.00 56.20 L 1.50 62.50 L 2.30 65.80 L 3.60 69.00 L 5.50 72.20 L 8.00 75.60 L 10.90 78.60 L 14.80 81.70 L 19.60 84.90 L 21.80 85.80 L 27.80 87.70 L 36.50 89.30 L 41.50 89.60 L 46.80 89.30 L 54.00 87.60 L 57.60 86.20 L 61.10 84.30 L 64.50 81.80 L 67.80 78.70 L 70.80 75.20 L 73.70 70.90 L 77.20 64.20 L 78.50 60.10 L 78.90 57.30 L 78.90 53.70 L 78.10 48.60 L 77.10 45.50 L 74.10 39.40 L 71.70 35.80 L 65.50 29.00 L 61.20 25.10 L 59.00 16.70 L 57.60 13.20 L 54.00 7.40 L 50.10 3.60 L 47.70 2.30 L 45.00 1.50 L 40.70 1.10 L 37.60 1.80 L 35.70 2.70 L 33.60 4.40 L 30.90 7.80 L 29.60 10.30" fill="#ffffff" fill-rule="nonzero" group-id="1" node-id="21" stroke="#381207" stroke-linecap="butt" stroke-width="2" target-height="88.5" target-width="77.9" target-x="1" target-y="1.1"></path><g node-id="36"><path d="M 32.40 54.10 L 34.10 55.10 L 34.60 57.00 L 33.70 58.80 L 31.70 59.30 L 30.00 58.30 L 29.50 56.40 L 30.40 54.70 L 32.40 54.10 Z" fill="#381207" fill-rule="nonzero" group-id="1,2" node-id="25" stroke="none" target-height="5.200001" target-width="5.0999985" target-x="29.5" target-y="54.1"></path></g><g node-id="37"><path d="M 54.10 51.80 L 55.80 52.80 L 56.40 54.70 L 56.10 55.70 L 54.50 56.90 L 52.50 56.70 L 51.30 55.10 L 51.50 53.10 L 52.20 52.40 L 54.10 51.80 Z" fill="#381207" fill-rule="nonzero" group-id="1,3" node-id="30" stroke="none" target-height="5.1000023" target-width="5.1000023" target-x="51.3" target-y="51.8"></path></g><path d="M 39.70 60.20 L 40.80 62.10 L 41.40 62.50 L 42.20 62.40 L 42.90 62.00 L 44.10 60.10 L 46.80 61.20 L 47.40 61.10 L 48.50 60.20 L 48.80 59.10 L 48.60 58.50" fill="#ffffff" fill-rule="nonzero" group-id="1" node-id="33" stroke="#381207" stroke-linecap="butt" stroke-width="1" target-height="4" target-width="9.099998" target-x="39.7" target-y="58.5"></path></g></svg>