<?xml version="1.0" standalone="no"?><!DOCTYPE svg PUBLIC "-//W3C//DTD SVG 1.1//EN" "http://www.w3.org/Graphics/SVG/1.1/DTD/svg11.dtd"><svg t="1733287966936" class="icon" viewBox="0 0 1024 1024" version="1.1" xmlns="http://www.w3.org/2000/svg" p-id="14871" xmlns:xlink="http://www.w3.org/1999/xlink" width="200" height="200"><path d="M939.8 579.4c0 1 10.2 2 10.2 2.9 0 1 0.8 2 0.8 3s-3.5 1.9-3.6 2.8c0 1 1.3 2 1.3 3s-5 1.7-5.1 2.7 0.8 2 0.7 2.9c-0.1 1-7.5 1.3-7.6 2.3s10.1 2.8 10 3.7c-0.1 1-1.2 1.8-1.3 2.8s-3.1 1.6-3.2 2.6c-0.1 1 1.6 2.1 1.5 3.1s-9.8 0.6-9.9 1.6c-0.1 0.9 6.8 2.8 6.7 3.8-0.1 0.9 2 2.2 1.8 3.2-0.1 0.9-3.8 1.3-3.9 2.3-0.2 0.9-1.4 1.7-1.6 2.6-0.2 0.9-2.1 1.5-2.3 2.5-0.2 0.9-3.6 1.2-3.8 2.1-0.2 0.9 13.9 4.9 13.7 5.8-0.2 0.9-3.1 1.3-3.3 2.3-0.2 0.9-5.8 0.6-6 1.6-0.2 0.9-4.3 0.9-4.5 1.8-0.2 0.9 0.1 1.9-0.1 2.9-0.2 0.9 11.7 5.1 11.5 6.1-0.3 0.9-7.3 0-7.6 0.9s-2 1.4-2.3 2.3c-0.3 0.9 1.7 2.5 1.5 3.4-0.3 0.9 5 3.6 4.7 4.5s-2.2 1.4-2.6 2.3c-0.3 0.9-11-1.7-11.3-0.8s0.3 2.1 0 3 0.1 2-0.3 2.9c-0.3 0.9 0.2 2.1-0.1 3s6.7 4.7 6.4 5.6c-0.3 0.9-10.8-2.2-11.1-1.3-0.4 0.9 1.7 2.7 1.3 3.6-0.4 0.9 0.2 2.2-0.1 3-0.4 0.9-3.9 0.4-4.3 1.2-0.4 0.9 3.6 3.7 3.2 4.6-0.4 0.9 0.6 2.4 0.2 3.3-0.4 0.9-9.1-2.2-9.5-1.4-0.4 0.9 10.7 7.3 10.3 8.2s-3.8 0.3-4.3 1.1c-0.4 0.9 0.1 2.2-0.3 3.1-0.4 0.9-5.1-0.5-5.6 0.3-0.4 0.8-4.4-0.2-4.8 0.6-0.5 0.8 0.5 2.4 0.1 3.2-0.5 0.8 5.9 5.5 5.4 6.3s-2.6 0.7-3.1 1.6c-0.5 0.8-0.4 2-0.9 2.8s-5.5-1.1-6-0.2c-0.5 0.8 4.3 4.9 3.8 5.7s-8.3-3-8.8-2.1c-0.5 0.8 6.6 6.5 6.1 7.3s-4.7-0.7-5.2 0.1-5.1-1.1-5.6-0.3 5.9 6.3 5.4 7.1 1.1 3.1 0.6 3.9c-0.5 0.8-2.8 0.4-3.4 1.2-0.6 0.8 2.2 4 1.6 4.7-0.6 0.8-0.4 2.1-1 2.9-0.6 0.8-12-6.5-12.6-5.8-0.6 0.8 8.6 8.9 8 9.7s-5.7-1.9-6.3-1.2c-0.6 0.8 2.7 4.6 2.1 5.4-0.6 0.7-7.7-3.7-8.3-2.9-0.6 0.7-2.5 0.4-3.2 1.1-0.6 0.7 8.3 9.4 7.7 10.2-0.6 0.7-7-3.4-7.6-2.6-0.6 0.7-5.7-2.4-6.4-1.7-0.6 0.7 5.3 7.1 4.6 7.9-0.6 0.7-1.9 0.9-2.6 1.6-0.6 0.7-9.1-5.7-9.8-5-0.6 0.7 7.3 9.3 6.6 10s-6.2-3.2-6.8-2.5c-0.7 0.7 0 2.6-0.6 3.3-0.7 0.7-4.6-1.8-5.3-1.1s6.6 9.1 5.9 9.8c-0.7 0.7-0.3 2.5-1 3.1-0.7 0.7-10.7-8.1-11.4-7.5-0.7 0.7 7 9.9 6.3 10.6-0.7 0.7-8.9-6.6-9.6-5.9-0.7 0.7 2.1 5 1.4 5.7-0.7 0.7-2.9-0.4-3.6 0.3-0.7 0.6 1.6 4.6 0.9 5.2-0.7 0.6-4.4-2.1-5.1-1.4-0.7 0.6-4.7-2.5-5.4-1.8-0.7 0.6 8.5 12.7 7.8 13.4-0.7 0.6-10.6-9.4-11.3-8.8-0.7 0.6-0.9 1.8-1.6 2.5-0.7 0.6 1.4 4.7 0.7 5.3s-0.6 2.3-1.3 2.9c-0.7 0.6-3.6-1.5-4.4-0.9-0.7 0.6 4.7 9 4 9.6-0.8 0.6-9.2-8.7-10-8.1-0.8 0.6 0.3 3.5-0.4 4.1-0.8 0.6 4.7 9.4 3.9 10s-1.8 0.9-2.6 1.5-2.1 0.5-2.9 1.1c-0.8 0.6-8.2-8-8.9-7.4-0.8 0.6 3.5 8.2 2.7 8.7-0.8 0.6-4.9-3.6-5.7-3.1s0.1 3.5-0.7 4.1c-0.8 0.5-2.6-0.4-3.4 0.2-0.8 0.5-4.3-3-5.1-2.5s5.3 11.5 4.5 12-5.7-5.2-6.5-4.7 0.4 4.1-0.4 4.7c-0.8 0.5-2.1 0.4-2.9 0.9-0.8 0.5-4.9-4.2-5.7-3.6-0.8 0.5 4.5 11 3.7 11.5s-5.4-5.1-6.2-4.6-1.2 1.7-2 2.2 0.4 4.5-0.4 4.9c-0.8 0.5-0.3 3.4-1.1 3.9s-9.4-12.5-10.2-12 4 11 3.2 11.4c-0.8 0.5-0.5 3.2-1.3 3.6-0.8 0.5-3.4-2.2-4.3-1.8-0.8 0.5-0.5 3.1-1.4 3.5-0.8 0.5-0.8 2.7-1.6 3.2-0.8 0.4-6.7-8.7-7.6-8.3-0.8 0.4 0.4 4.9-0.5 5.3-0.9 0.4-4-3.6-4.8-3.2-0.9 0.4-1.1 2.1-1.9 2.6-0.9 0.4-1.4 1.5-2.3 1.9-0.9 0.4 2.7 9.9 1.8 10.3-0.9 0.4-8.7-13.8-9.6-13.4-0.9 0.4-0.6 3.2-1.5 3.6-0.9 0.4-2 0.2-2.8 0.6-0.9 0.4-1.9 0.3-2.8 0.7-0.9 0.4-2 0.2-2.8 0.6-0.9 0.4-1.5 1.3-2.3 1.7-0.9 0.4 0 4.7-0.9 5.1-0.9 0.4-1.1 2.2-2 2.6-0.9 0.4-1.5 1.4-2.4 1.7-0.9 0.4 0.4 6.1-0.4 6.5-0.9 0.4-5.9-9.5-6.8-9.1-0.9 0.4 1.9 10 1 10.3-0.9 0.4-5.4-8.7-6.3-8.3-0.9 0.3 2.9 12.8 2 13.1s-7.6-14.7-8.5-14.3c-0.9 0.3 2.1 11 1.2 11.3-0.9 0.3-0.5 4.2-1.4 4.5s-4.4-6.5-5.3-6.1c-0.9 0.3 0.8 8.2-0.1 8.5-0.9 0.3-3.7-4.8-4.6-4.4-0.9 0.3-0.8 3.5-1.8 3.8-0.9 0.3-5.5-10.4-6.4-10.1-0.9 0.3 2.8 14.7 1.9 15-0.9 0.3-3.3-4-4.2-3.7s-2.9-2.9-3.8-2.6c-0.9 0.3-3.7-5.6-4.6-5.3-0.9 0.3-0.4 5.2-1.3 5.5-0.9 0.3-3.1-3.9-4-3.6-0.9 0.3-0.2 6.1-1.1 6.3-0.9 0.3-3.2-4.3-4.1-4-0.9 0.3 0.7 9.6-0.2 9.8-0.9 0.3-4.7-10.2-5.7-10-0.9 0.2-0.9 4-1.8 4.2-0.9 0.2-1.9 0.4-2.8 0.6-0.9 0.2-1.9 0.2-2.8 0.4-0.9 0.2-0.7 5.2-1.6 5.4-0.9 0.2-2.3-1.6-3.3-1.4-0.9 0.2-1.1 3.6-2 3.8s-1.1 4-2 4.2-2.1-0.6-3.1-0.4c-0.9 0.2-2.4-2-3.3-1.8-0.9 0.2-1.8 0.9-2.7 1.1-0.9 0.2-3.9-9.2-4.8-9-0.9 0.2-0.4 7.8-1.3 8-0.9 0.2-1.5 2.3-2.4 2.5s-0.7 6.8-1.6 7c-0.9 0.2-3.5-8.2-4.4-8s-3-6.2-4-6c-0.9 0.2-1.2 3.8-2.2 4-0.9 0.2 0.1 12.4-0.8 12.6-0.9 0.2-4-12.6-5-12.5-0.9 0.2-1.7 1.6-2.6 1.8-0.9 0.1-0.3 10.5-1.3 10.6-0.9 0.1-2.7-4.8-3.6-4.7-0.9 0.1-1 6.5-2 6.7-0.9 0.1-3.9-14.7-4.9-14.5-0.9 0.1-0.8 8.6-1.7 8.8-0.9 0.1-2.1-1.4-3.1-1.3-1 0.1-1.3 5.6-2.2 5.7-1 0.1-3.1-10-4-9.9-1 0.1-0.9 9.6-1.8 9.7-1 0.1-3-10.6-4-10.5s-1.1 7.7-2.1 7.7c-1 0.1-1.6 3.1-2.6 3.2-1 0.1-2.1-1.6-3-1.5-1 0.1-1.9 0.9-2.8 1-1 0.1-2-1.4-3-1.4-1 0.1-1.8 1.4-2.8 1.5s-2.2-3.8-3.1-3.7c-1 0.1-2-2.1-3-2s-2.2-4.6-3.1-4.5c-1 0.1-1.6 4.8-2.6 4.8s-1.7 3.6-2.7 3.7c-1 0-1.6 7.3-2.6 7.3s-2.5-14.5-3.4-14.4c-1 0-1.5 14.1-2.4 14.1-1 0-1.9 1.5-2.9 1.5s-2-0.6-2.9-0.6c-1 0-2 0.1-2.9 0.1-1 0-2.1-14.9-3.1-14.9s-1.9-0.1-2.8-0.1c-1 0-1.9 14.9-2.8 14.9-1 0-1.9-15-2.8-15-1 0-2 8.9-2.9 8.9-1 0-2 3.9-2.9 3.9-1 0-2 2.3-2.9 2.3-1 0-1.8-8.1-2.7-8.2-1 0-2.2 8.4-3.1 8.4-1 0-1.5-12.3-2.5-12.3s-1.9 0.5-2.9 0.5-2.2 6.5-3.2 6.4c-1 0-1.8-2.4-2.8-2.5-1 0-2.2 5.3-3.2 5.2s-1.5-6.6-2.5-6.7c-1-0.1-2.4 6.9-3.3 6.9-1-0.1-1.3-9-2.3-9-1-0.1-1.6-4.5-2.5-4.6-1-0.1-2 1.6-3 1.5s-1.9-0.2-2.8-0.3c-1-0.1-2.5 7-3.5 6.9s-1.4-5.3-2.4-5.4c-1-0.1-1.6-2.6-2.6-2.7-1-0.1-2.5 5.7-3.5 5.6-1-0.1-1-8.6-1.9-8.7-1-0.1-2.5 5.1-3.4 5-1-0.1-1.9 0.2-2.9 0.1s-2.2 2-3.1 1.9c-1-0.1-2.4 3.8-3.4 3.7s-0.7-9.2-1.6-9.3-3.1 8.1-4 8-1.8-0.9-2.8-1.1c-0.9-0.1-0.8-7.4-1.8-7.6-0.9-0.1-3 6.7-3.9 6.5s-2.6 3.9-3.6 3.7c-0.9-0.2-2.1 0.9-3.1 0.7-0.9-0.2-1.9-0.3-2.9-0.5-0.9-0.2 0.2-11.9-0.8-12-0.9-0.2-1.4-3-2.3-3.2s-3.8 9.6-4.7 9.4c-0.9-0.2-2.5 2.7-3.5 2.5-0.9-0.2-0.6-7.1-1.5-7.2-0.9-0.2-1.8-1-2.7-1.2-0.9-0.2-1-4.4-1.9-4.6-0.9-0.2-4.1 9.7-5 9.5s-1.8-1-2.7-1.2c-0.9-0.2-1.5-2.1-2.4-2.3s-0.1-8-1-8.2-4.5 10.2-5.4 10-1-4.2-1.9-4.5c-0.9-0.2-1.2-3.2-2.1-3.4s-1.3-2.6-2.2-2.8c-0.9-0.2-3 3.7-3.9 3.5s-2.3 1.2-3.3 1c-0.9-0.3-1-3.6-1.9-3.9l-2.7-0.9c-0.9-0.3-1.7-1.1-2.6-1.3-0.9-0.3-0.8-4.2-1.7-4.4-0.9-0.3-3 3.4-3.9 3.1-0.9-0.3-3.5 4.9-4.5 4.6-0.9-0.3-2.5 1.4-3.4 1.1-0.9-0.3-0.9-3.6-1.8-3.9-0.9-0.3-1.1-3-2-3.3s-2.6 1.8-3.6 1.5c-0.9-0.3 2.4-13 1.5-13.3s-5.4 9.9-6.3 9.6c-0.9-0.3-1.7-1.1-2.6-1.4-0.9-0.3 1.8-10.6 0.9-11-0.9-0.3-4.2 5.9-5 5.5-0.9-0.3-4.7 7.2-5.6 6.8-0.9-0.3-1.3-2-2.2-2.3-0.9-0.3 3.5-14.4 2.6-14.7s-4.6 6.5-5.5 6.1-3.2 2.9-4.1 2.5 1.3-8.3 0.4-8.7-2.5 1.2-3.4 0.8-1.5-1.4-2.3-1.8c-0.9-0.4-3.2 2.8-4.1 2.4-0.9-0.4 1.5-8.3 0.6-8.6-0.9-0.4-3.9 4.2-4.8 3.8s-0.6-3.3-1.5-3.7-4.3 4.9-5.2 4.5c-0.9-0.4-0.3-4-1.1-4.4-0.9-0.4-5.7 7.7-6.6 7.2-0.9-0.4 2.6-10 1.8-10.4-0.9-0.4-0.1-4.1-0.9-4.6-0.9-0.4-3.6 3.1-4.5 2.7-0.9-0.4-1.4-1.4-2.3-1.8-0.9-0.4-0.3-3.7-1.1-4.1-0.9-0.4-6.4 8.2-7.2 7.8-0.9-0.4 3.7-11.2 2.9-11.7-0.8-0.4-2.5 0.7-3.4 0.3-0.8-0.5-7.9 10.6-8.7 10.1-0.8-0.5-1.8-0.8-2.7-1.2-0.8-0.5 0.1-4.2-0.7-4.7-0.8-0.5 0.9-5.5 0-5.9-0.8-0.5-3.9 2.9-4.7 2.4s-4.1 3.2-5 2.7c-0.8-0.5-1.9-0.7-2.7-1.2s0.5-4.6-0.3-5.1 3-8.6 2.2-9.1-8.2 9.6-9 9.1 4.5-10.7 3.6-11.2c-0.8-0.5-3.5 1.9-4.3 1.4s-5.3 4.7-6.1 4.1c-0.8-0.5 4.8-10.9 4-11.4s-5.6 4.9-6.4 4.4c-0.8-0.5 3.4-8.4 2.6-8.9-0.8-0.5-3.1 1.2-3.9 0.7-0.8-0.5-3.2 1.3-4 0.8-0.8-0.6 1.7-5.7 0.9-6.2-0.8-0.6-6.9 6.4-7.7 5.8-0.8-0.6-3.3 1.3-4.1 0.7s5.8-11.1 5.1-11.7c-0.8-0.6-5.6 4.4-6.4 3.8-0.8-0.6-5.5 4.1-6.3 3.5s3-7 2.2-7.6-0.7-2.2-1.5-2.8-8 6.9-8.7 6.3c-0.7-0.6-0.9-2-1.6-2.6-0.7-0.6-2.8 0.3-3.5-0.4-0.7-0.6 8.4-13.1 7.7-13.7-0.7-0.6-6.1 4.3-6.8 3.6-0.7-0.6-3.4 1-4.1 0.3-0.7-0.6-4.9 2.7-5.7 2.1-0.7-0.6 6.2-9.9 5.5-10.6-0.7-0.6-0.5-2.3-1.2-3-0.7-0.6-3 0.5-3.7-0.2-0.7-0.6 2.7-5.7 2-6.3-0.7-0.7-4.4 2-5.1 1.3-0.7-0.7-4.3 1.8-5 1.1s-4.4 1.8-5.1 1.1c-0.7-0.7 0.2-2.9-0.5-3.6-0.7-0.7 5.9-8.6 5.2-9.2-0.7-0.7-12.8 9.8-13.4 9.2-0.7-0.7 9.7-12 9-12.7s-1.5-1.1-2.2-1.8-6.6 3.6-7.3 2.9c-0.7-0.7-4.1 1.1-4.7 0.4-0.6-0.7 8-9.8 7.4-10.5s-5.3 2.2-5.9 1.5c-0.6-0.7-4.8 1.7-5.4 1-0.6-0.7 6.4-8 5.8-8.7-0.6-0.7-6.6 3.2-7.3 2.4-0.6-0.7 4.1-5.8 3.5-6.6-0.6-0.7-9.9 5.6-10.5 4.9-0.6-0.7-0.4-2.2-1-2.9s-3.2 0-3.8-0.7c-0.6-0.8 8.2-8.7 7.6-9.5-0.6-0.8-2.3-0.6-2.9-1.4-0.6-0.8-2.8-0.2-3.4-1-0.6-0.8-0.7-1.8-1.2-2.6-0.6-0.8 1.9-3.7 1.4-4.5-0.6-0.8-1.6-1.1-2.2-1.9-0.5-0.8-8.7 3.7-9.2 2.9s4.3-5.2 3.8-6 1.7-3.4 1.2-4.2-7.2 2.5-7.7 1.7 2.6-3.9 2.1-4.7-6.2 1.6-6.7 0.8-5.7 1.2-6.2 0.4 0.4-2.5-0.1-3.4c-0.5-0.8 8-6.9 7.6-7.8-0.5-0.8-5.7 1.1-6.1 0.2-0.5-0.8-2.1-1-2.6-1.9-0.5-0.8-5.1 0.6-5.6-0.3-0.5-0.8 7.9-6.4 7.5-7.3-0.4-0.8-10.2 3.1-10.7 2.3-0.4-0.9 11.6-8 11.1-8.9-0.4-0.9-8 1.9-8.4 1s-6.8 1.1-7.2 0.2c-0.4-0.9 10.7-7.2 10.3-8-0.4-0.9-6.9 1.1-7.3 0.2-0.4-0.9-6.7 0.8-7.1 0-0.4-0.9 4.3-4 3.9-4.9s6.7-4.9 6.3-5.8c-0.4-0.9 0-2-0.4-2.9s-0.6-1.8-0.9-2.6c-0.3-0.9-10.2 1.9-10.5 1s-0.1-2-0.4-2.9-2-1.4-2.3-2.3c-0.3-0.9-3.8-0.8-4.1-1.7-0.3-0.9-0.3-2-0.6-2.9-0.3-0.9 8.1-4.7 7.8-5.6-0.3-0.9 5.4-3.7 5.1-4.6-0.3-0.9-8.9 0.7-9.1-0.2-0.3-0.9 6.6-3.9 6.3-4.8-0.3-0.9 0.5-2.1 0.3-3-0.3-0.9-3.3-1-3.6-1.9-0.2-0.9-6-0.4-6.3-1.3-0.2-0.9 5.4-3.3 5.2-4.2-0.2-0.9-10.8 0.5-11-0.4s-1.1-1.8-1.3-2.7c-0.2-0.9 1-2.2 0.8-3.2-0.2-0.9-1.4-1.7-1.6-2.7-0.2-0.9 3.7-2.7 3.5-3.6-0.2-0.9 8.4-3.4 8.3-4.3-0.2-0.9-8-0.6-8.1-1.6-0.1-0.9-7.1-0.9-7.2-1.9-0.1-0.9 2.9-2.4 2.7-3.4-0.1-0.9 5.9-2.7 5.7-3.7-0.1-0.9 4.4-2.4 4.3-3.4s-4.1-1.4-4.2-2.4-10.7-0.9-10.8-1.9c-0.1-1 12.8-3 12.8-4-0.1-1-11.9-1.1-11.9-2-0.1-1 12.2-2.7 12.2-3.6-0.1-1 2.5-2 2.4-2.9 0-1-16.4-1.3-16.5-2.2 0-1 13.8-2.3 13.8-3.3s-6.9-1.8-6.9-2.7c0-1-5.7-1.9-5.7-2.9s14-1.8 14-2.8-9.6-2.1-9.6-3c0-1-3.4-2.1-3.4-3 0-1 13-1.4 13-2.4s-5.8-2.2-5.8-3.1c0.1-1 0.4-1.9 0.5-2.8 0.1-1-4.8-2.3-4.7-3.2 0.1-1 0.9-1.9 1-2.8 0.1-1-3.1-2.3-3-3.2 0.1-1 9.7-0.9 9.8-1.9 0.1-1 2.4-1.6 2.5-2.6s-9.5-3.2-9.4-4.1c0.1-1 9.6-0.6 9.8-1.5 0.1-0.9-6-2.8-5.8-3.8 0.1-0.9 4.7-1.2 4.9-2.1 0.2-0.9 4.1-1.2 4.3-2.1 0.2-0.9-5.5-2.9-5.3-3.9 0.2-0.9-6.9-3.3-6.7-4.3 0.2-0.9 11.6 0.5 11.8-0.5 0.2-0.9-3.2-2.6-3-3.6 0.2-0.9 0.5-1.8 0.7-2.8 0.2-0.9 2.4-1.4 2.6-2.3 0.2-0.9 1-1.7 1.2-2.6 0.2-0.9 2.8-1.2 3.1-2.1 0.3-0.9-9.4-4.6-9.1-5.5s4-0.8 4.3-1.8c0.3-0.9 2.1-1.4 2.4-2.3s5.5-0.2 5.8-1.1-2.1-2.7-1.8-3.6c0.3-0.9-7.7-4.6-7.4-5.5 0.3-0.9 12.3 2.3 12.6 1.4 0.3-0.9-1.6-2.5-1.2-3.4 0.3-0.9 3.3-0.7 3.6-1.6 0.3-0.9-13.3-7.2-12.9-8.1 0.3-0.9 5.7 0.2 6-0.7 0.4-0.9 9 1.6 9.4 0.8 0.4-0.9-6.7-4.9-6.3-5.7 0.4-0.9-4.4-4-4-4.9s11.5 3 11.9 2.2c0.4-0.9 2.2-1 2.6-1.9s-7.4-5.6-7-6.4c0.4-0.9 8 1.8 8.4 0.9s-7.5-5.9-7.1-6.7c0.4-0.9-2.7-3.6-2.3-4.5 0.4-0.9 14.9 5.6 15.3 4.8 0.4-0.8-9.8-7.4-9.4-8.2 0.5-0.8 4.2 0.1 4.7-0.7 0.5-0.8 2-1 2.5-1.9 0.5-0.8 4 0.1 4.5-0.7 0.5-0.8-0.3-2.3 0.2-3.2 0.5-0.8-7.5-6.7-7-7.6 0.5-0.8 5.9 1.4 6.4 0.5 0.5-0.8 4.8 0.7 5.3-0.1 0.5-0.8 1.4-1.3 1.9-2.1s-8.7-8-8.2-8.8 2.4-0.8 2.9-1.6 0.4-2.1 1-2.9c0.5-0.8 6 1.8 6.5 1s-0.6-2.8 0-3.5c0.6-0.8 4.2 0.7 4.8-0.1 0.6-0.8 0.2-2.2 0.8-3s7 2.9 7.6 2.1 0.5-1.9 1.1-2.7c0.6-0.8-7.3-8.1-6.7-8.8 0.6-0.8 0-2.5 0.6-3.2s12.3 7.4 12.9 6.7c0.6-0.7-1.9-3.9-1.3-4.7 0.6-0.7-8.2-9.3-7.6-10.1 0.6-0.7 8.8 4.9 9.4 4.2 0.6-0.7 4.3 1.2 5 0.5 0.6-0.7-1.2-3.5-0.6-4.3 0.6-0.7-3.7-5.8-3-6.6 0.6-0.7 4.9 1.9 5.6 1.2 0.6-0.7 4.3 1.4 4.9 0.7 0.7-0.7-6.9-9.1-6.3-9.8 0.7-0.7 1.3-1.5 2-2.2s9.6 6.6 10.3 5.9-7.9-10.5-7.2-11.2 8.4 5.6 9.1 5c0.7-0.7-0.5-3.2 0.2-3.9 0.7-0.7 3.3 0.7 4 0s5.5 3 6.2 2.4c0.7-0.7-2.5-5.4-1.8-6.1s-3.4-6.5-2.6-7.1c0.7-0.6-1.4-4.5-0.7-5.1s8.2 6.3 8.9 5.6c0.7-0.6-2-5.2-1.3-5.8 0.7-0.6 0.9-2 1.6-2.6 0.7-0.6 0.6-2.3 1.4-2.9 0.7-0.6 5.7 3.7 6.4 3.1s-2.4-5.9-1.7-6.5-0.4-3.6 0.3-4.2 1.8-1 2.5-1.6 7.9 6.8 8.6 6.2c0.8-0.6-2.2-5.9-1.4-6.5s7.6 6.7 8.4 6.1c0.8-0.6 2.6 0.4 3.4-0.2 0.8-0.6-7.9-13.8-7.1-14.3 0.8-0.6 6.9 6.1 7.7 5.6 0.8-0.6 2.9 0.7 3.6 0.1 0.8-0.6-3.8-8.6-3-9.2s2.6 0.3 3.4-0.3c0.8-0.5-1.1-5.1-0.3-5.6s7.8 8 8.6 7.5-0.1-3.5 0.7-4 4.9 4 5.7 3.4c0.8-0.5 0.8-2.3 1.6-2.8s-4.4-10.4-3.6-10.9c0.8-0.5 6.6 6.7 7.4 6.2 0.8-0.5 4.2 3.2 5 2.7s-5.4-12.4-4.6-12.9c0.8-0.5 3.7 2.3 4.5 1.8s-1.5-6.2-0.6-6.7c0.8-0.5 3.8 2.6 4.6 2.1s4.3 3.5 5.1 3.1c0.8-0.5 1.2-1.8 2-2.2 0.8-0.5 3.8 2.8 4.6 2.4 0.8-0.5 1.7-0.8 2.6-1.2 0.8-0.5-3.9-11.1-3.1-11.6s2.2-0.1 3-0.6 1.5-1.4 2.3-1.8 6.5 8.2 7.3 7.8c0.9-0.4 2.3 0.4 3.2-0.1 0.9-0.4-1-6.2-0.1-6.6s0.8-2.7 1.6-3.2c0.9-0.4 6.4 8.7 7.3 8.3 0.9-0.4-3.8-12.3-3-12.7 0.9-0.4 5.2 6.4 6 6 0.9-0.4 1.3-1.8 2.1-2.2 0.9-0.4 2.5 0.9 3.4 0.5s2-0.1 2.9-0.5 0-4.7 0.8-5.1c0.9-0.4 2-0.2 2.9-0.6s3.7 3.8 4.6 3.4 2.7 1.5 3.6 1.1 0.6-3.5 1.5-3.9 0.6-3.6 1.4-4c0.9-0.4 1.1-2.3 2-2.6 0.9-0.4 4.4 5.9 5.3 5.6 0.9-0.4-0.1-5.5 0.8-5.8s4 5.1 4.9 4.8c0.9-0.3 0.8-3.1 1.7-3.4 0.9-0.3-3.1-13.8-2.2-14.2 0.9-0.3 4.9 7.7 5.8 7.4 0.9-0.3 1.2-2.3 2.1-2.7 0.9-0.3-4.9-3.4-4-3.7-0.2-0.9 4.8 2.5 4.5 1.6-0.2-0.9 6.4-3.5 6.1-4.4-0.2-0.9-6.6-0.4-6.8-1.3-0.2-0.9 1.6-2.3 1.4-3.2-0.2-0.9-8.8-0.1-9-1.1-0.2-0.9 6-3.2 5.9-4.1-0.2-0.9-2.7-1.4-2.9-2.4-0.2-0.9-1.9-1.6-2-2.6-0.2-0.9-0.4-1.9-0.5-2.8-0.1-0.9-2.3-1.6-2.4-2.6-0.1-0.9 6.9-2.9 6.8-3.8-0.1-0.9-4.9-1.3-5-2.3-0.1-0.9 5.9-2.6 5.8-3.5s-6.2-1.3-6.2-2.2c-0.1-0.9 11.8-3 11.7-3.9-0.1-0.9-5.1-1.4-5.2-2.4-0.1-0.9-1.5-1.8-1.5-2.7-0.1-0.9-9.3-1.3-9.4-2.3-0.1-0.9 3.9-2.2 3.8-3.1 0-0.9 7.4-2.2 7.4-3.2 0-0.9-1.2-1.8-1.2-2.8 0-0.9-9.7-1.7-9.7-2.6 0-0.9 1.5-2 1.5-2.9s10.6-1.9 10.6-2.9-13.3-2-13.3-3 8.8-1.8 8.9-2.8c0-1 2.3-1.9 2.3-2.8 0-1-0.3-1.9-0.3-2.9s-6.9-2.3-6.8-3.2c0-1 11.5-1.3 11.6-2.2 0.1-1-12.2-2.8-12.2-3.7 0.1-1 1.1-1.9 1.2-2.9s0-2 0.1-2.9c0.1-1 10.8-0.8 10.9-1.8s-1.4-2-1.3-3-10.3-3.3-10.2-4.2c0.1-1 11.4-0.4 11.6-1.3 0.1-1-8-3.2-7.8-4.1 0.2-1 8.8-0.5 9-1.4 0.2-1-2.1-2.3-1.9-3.2 0.2-1 5.9-0.7 6.1-1.7s-11.3-4.3-11.1-5.3c0.2-0.9 12.1 0.8 12.3-0.1 0.2-0.9-3-2.6-2.7-3.5 0.2-0.9-5.4-3.4-5.1-4.3 0.3-0.9 7.1 0 7.3-0.9 0.3-0.9-2.3-2.6-2-3.5s6 0 6.3-0.9-1.4-2.4-1.1-3.3c0.3-0.9-11.8-6.3-11.5-7.2s2.7-1.2 3-2.1c0.4-0.9-2-3.1-1.6-3.9 0.4-0.9 2.2-1.3 2.6-2.2 0.4-0.9 7 1.1 7.4 0.2 0.4-0.9-5.2-4.9-4.8-5.7 0.4-0.9 13.6 5.1 14.1 4.3 0.5-0.9-1.4-2.8-1-3.7 0.5-0.8-0.6-2.5-0.1-3.3s0.2-2 0.8-2.8c0.6-0.8-7.8-8.2-7.2-8.9 0.6-0.8 11 6 11.6 5.3 0.6-0.8 4 1.2 4.6 0.5s-7.6-9.7-7-10.4c0.7-0.7-0.1-3.3 0.6-3.9 0.7-0.7 7 4.9 7.8 4.3s-0.2-3.4 0.5-4c0.8-0.6 3.6 1.9 4.4 1.4s0.5-2.8 1.3-3.3c0.9-0.5 4 4.3 4.9 3.9s-0.6-5.9 0.3-6.2c0.9-0.3 1.4-2.1 2.3-2.3 0.9-0.2 0.8-7.2 1.7-7.4 0.9-0.2 2.8 2.1 3.8 2s2.4 5.6 3.4 5.6 2.1-2.4 3.1-2.3 1.2 5.5 2.2 5.6c0.9 0.2 1.8-0.3 2.8-0.1 0.9 0.2 4.2-6.6 5.1-6.3 0.9 0.3 3-1.1 3.9-0.7s1.9 1.7 2.7 2.2c0.8 0.5-5 12.3-4.1 12.8 0.8 0.5 5.1-4.4 5.9-3.9 0.8 0.6 2.6-0.2 3.4 0.4 0.7 0.6-2.5 5.7-1.8 6.4 0.7 0.6 4.9-2.4 5.6-1.7 0.7 0.7-1.4 3.9-0.8 4.6s8.6-4.7 9.2-3.9c0.6 0.7-6.2 7.3-5.6 8.1 0.6 0.8 2.5 0.5 3 1.3s7.1-2.3 7.6-1.5 0.6 2.1 1.1 2.9-3.2 4.1-2.7 5c0.5 0.8 1.6 1.4 2 2.2 0.4 0.8-4.9 4.6-4.5 5.4 0.4 0.9 7.8-1.6 8.2-0.7 0.4 0.9 2.4 1.1 2.8 2s-3.2 3.4-2.8 4.3c0.4 0.9 1.5 1.5 1.8 2.4s4 0.7 4.3 1.6c0.3 0.9-4.4 3.5-4.1 4.5 0.3 0.9-2.7 2.8-2.4 3.8 0.3 0.9 5.6 0.3 5.9 1.2s-3.5 2.9-3.2 3.9c0.2 0.9 1.8 1.5 2 2.4s6.7 0.4 6.9 1.3c0.2 0.9 0.1 2 0.4 3 0.2 0.9-3.1 2.6-2.9 3.6 0.2 0.9-6 3.1-5.8 4.1 0.2 0.9 13.1-0.4 13.3 0.5 0.2 0.9-10.8 3.8-10.6 4.7 0.2 0.9 8.2 0.7 8.4 1.6 0.1 0.9-8.9 3.2-8.8 4.1 0.1 0.9 8.1 0.9 8.3 1.8 0.1 1 3 1.6 3.1 2.6s2.1 1.8 2.2 2.8-8.8 2.8-8.7 3.7c0.1 1-0.2 1.9-0.2 2.9 0.1 1-0.8 2-0.7 2.9 0.1 1 3 1.7 3 2.7s-5.7 2.2-5.7 3.1c0 1-2.4 1.9-2.4 2.9s1.2 1.8 1.3 2.8c0 1 4.4 1.8 4.4 2.8s5.5 1.9 5.5 2.9 3.1 2 3.1 2.9c0 1 1.1 2 1.1 2.9 0 1-13.9 1.6-13.9 2.5 0 1 5.6 2.1 5.5 3 0 1 3.2 2.1 3.2 3 0 1-8.3 1.4-8.3 2.4-0.1 1-1.1 1.8-1.1 2.7-0.1 1-0.3 1.8-0.4 2.8s-1.2 1.7-1.3 2.7c-0.1 1 16.2 3.5 16.1 4.4-0.1 1-13.3 0.5-13.4 1.5-0.1 0.9 12.8 3.4 12.7 4.4-0.1 0.9-1.9 1.8-2 2.7s-0.7 1.9-0.8 2.8c-0.1 0.9-3.8-1.3-3.9-0.3 0.9-0.1-1.4-5.5-0.4-5.7 1-0.1 3.1 9.9 4.1 9.8 1-0.1 1.5-3.8 2.4-3.9 1-0.1 1.2-7.1 2.1-7.2 1-0.1 2.2 2 3.1 1.9 1-0.1 2.4 5 3.4 4.9s1.4-5.2 2.4-5.3 2.7 9.1 3.7 9 1.2-8.8 2.1-8.8c1-0.1 2.5 6.8 3.4 6.8 1-0.1 1.5-5.4 2.5-5.5s2 1.6 3 1.5 2.4 7.3 3.3 7.3c1-0.1 1.4-9.6 2.3-9.6 1-0.1 1.9-1.5 2.8-1.5 1 0 2.4 9.5 3.3 9.5 1 0 2 1.8 2.9 1.7 1 0 1.8-1 2.8-1.1 1 0 1.5-11.5 2.5-11.6 1 0 1.9-1.6 2.9-1.6s2.1 5.4 3 5.4c1 0 1.9-3 2.8-3 1 0 2 9.4 3 9.4s1.9-8.8 2.8-8.8c1 0 1.9-0.9 2.9-0.9s1.9-2.7 2.9-2.7 1.8 14.1 2.8 14.1 1.9-1.9 2.9-1.9 2-7.2 3-7.2 1.9-0.2 2.9-0.1c1 0 1.6 11.2 2.5 11.3 1 0 2.3-13.1 3.3-13.1s1.4 13.4 2.3 13.4c1 0 2.5-13.8 3.4-13.7 1 0 1.3 12.4 2.3 12.5 1 0 1.9 0.1 2.8 0.1 1 0.1 2.1-4.1 3.1-4s1.6 4.8 2.5 4.9 2.3-5.5 3.2-5.4 1.3 7.4 2.3 7.5c0.9 0.1 3.2-16.3 4.1-16.2 0.9 0.1 1.4 6 2.4 6.1 0.9 0.1 1.1 9.2 2 9.3s4-5.5 5-5.4c-0.1-1-5.1-2.8-5.3-3.8-0.1-1-3.4-1.6-3.5-2.5-0.1-1 2.5-2.3 2.4-3.3s1.1-2.1 1-3.1-4.7-1.5-4.8-2.5 1.6-2.2 1.6-3.1c-0.1-1 10.7-2.8 10.6-3.7-0.1-1-2.4-1.7-2.4-2.7-0.1-1-7.4-1.5-7.4-2.5s1.4-2 1.4-3-1.3-1.9-1.3-2.9-4.5-1.9-4.6-2.9c0-1 12-2.1 12-3.1S562 213 562 212s-4.7-2-4.7-3 2.2-2 2.3-2.9c0-1 10.5-1.7 10.6-2.6 0-1-2.2-2-2.2-2.9 0-1-3.2-2.1-3.1-3 0-1 2.1-1.8 2.2-2.8 0.1-1-9.2-2.6-9.2-3.6 0.1-1 6.8-1.5 6.9-2.4 0.1-1-3.2-2.3-3.1-3.2 0.1-1-3.3-2.4-3.2-3.3l0.3-3c0.1-1 13.8-0.2 14-1.2 0.1-1-2.8-2.3-2.7-3.2 0.1-1 4.2-1.3 4.3-2.2 0.2-1-7.3-3.1-7.1-4.1s7.7-0.5 7.9-1.5-6.5-3.2-6.3-4.1c0.2-1 4.4-1 4.7-2 0.2-0.9-6.9-3.6-6.7-4.5s6.8-0.4 7-1.3c0.2-0.9-1.6-2.4-1.3-3.3 0.3-0.9 0.9-1.7 1.2-2.7 0.3-0.9 6.7 0 6.9-0.9 0.3-0.9-12.7-6.1-12.4-7s9 1 9.3 0.1-2.6-3-2.3-3.9-1.9-2.9-1.5-3.8c0.4-0.9 8.6 1.4 9 0.6 0.4-0.9 0.9-1.6 1.3-2.5 0.4-0.9-6.1-5-5.7-5.8 0.4-0.9 8.1 1.9 8.5 1.1 0.4-0.9-7.3-6.1-6.8-7s2.7-0.8 3.2-1.6 3-0.5 3.5-1.3-4.4-5.4-3.8-6.2c0.6-0.8 7 2.5 7.6 1.8 0.6-0.8 1.8-1 2.4-1.7 0.6-0.8-4-6.1-3.3-6.8 0.6-0.7 6.4 3.2 7.1 2.5 0.7-0.7-3.1-6.1-2.4-6.8 0.7-0.7 2.3-0.7 3-1.3 0.8-0.6 3.4 0.9 4.2 0.4 0.8-0.6 2-0.7 2.8-1.2s4.5 4.1 5.4 3.7c0.9-0.5 0.3-3.3 1.1-3.7 0.9-0.4 0.4-4.2 1.3-4.6 0.9-0.3 2.2 0.1 3.1-0.1 0.9-0.2 3.2 6.7 4.1 6.5 0.9-0.2 0.7-8 1.6-8.1 1-0.1 2 7 3 7s1.2 3 2.1 3.1c1 0.1 3-10.5 4-10.3 0.9 0.2 2.4-0.7 3.3-0.5 0.9 0.2 0.6 4.9 1.5 5.2 0.9 0.3 5.6-8.2 6.5-7.8 0.9 0.4 0.5 4.4 1.4 4.9 0.8 0.5-0.7 5.3 0.1 5.8s2.2 0.2 3 0.8c0.8 0.6 0.4 2.6 1.1 3.2 0.7 0.6 0.5 2.2 1.2 2.9 0.7 0.6 3.8-1.2 4.4-0.5 0.7 0.7 3.5-0.5 4.2 0.2 0.6 0.7 0.1 2.6 0.7 3.4 0.6 0.7 4.4-0.8 5 0s2 1.2 2.6 2c0.5 0.8-8.8 8.2-8.2 9 0.5 0.8 8.3-2.9 8.8-2 0.5 0.8-5.9 5.6-5.4 6.4s7.9-2.1 8.4-1.2c0.4 0.8-8.1 6.2-7.7 7.1 0.4 0.9 3.1 0.5 3.5 1.4s9-1.9 9.4-1-0.7 2.5-0.3 3.4-6 4.4-5.7 5.3c0.3 0.9 5.7 0 6 0.9s-7.6 4.6-7.3 5.5-0.4 2-0.1 2.9c0.3 0.9 0 1.8 0.3 2.8 0.3 0.9 14.3-2 14.5-1.1s-2.2 2.6-2 3.6c0.2 0.9-10.5 4.5-10.3 5.4s16.1-1.7 16.3-0.7c0.2 0.9-3.5 2.8-3.3 3.7s-2.9 2.6-2.7 3.5 3.7 1.3 3.9 2.3c0.2 0.9 4.4 1.3 4.6 2.2 0.2 0.9 0.5 2 0.6 2.9s-5.4 2.8-5.2 3.7c0.1 0.9 2.1 1.7 2.2 2.7 0.1 1-11.1 3.2-11 4.1 0.1 1 0 1.8 0.1 2.8s0.2 1.8 0.3 2.8 1.2 1.8 1.3 2.7c0.1 1 7.5 1.4 7.6 2.4s-0.6 2-0.5 2.9c0 1 1.1 1.9 1.2 2.9 0 1 3.3 1.8 3.4 2.8 0 1-11.7 2.2-11.7 3.2s3.2 1.8 3.2 2.8 1.3 1.9 1.3 2.9-1.2 1.9-1.2 2.8c0 1-2 1.8-2 2.8s5.6 2 5.6 3 5.8 2.1 5.7 3.1c0 1-2.7 1.8-2.8 2.8 0 1 0.2 2 0.2 2.9-0.1 1-7.1 1.5-7.2 2.4-0.1 1-0.2 1.9-0.3 2.8-0.1 1 9.6 2.7 9.5 3.7-0.1 0.9-0.9 1.9-1 2.8-0.1 0.9-3.6 1.6-3.7 2.5-0.1 0.9 5.8 2.7 5.7 3.6-0.1 0.9-14.4 0.1-14.5 1s14.1 3.9 14 4.8c-0.1 0.9-1.8 1.7-1.9 2.7-0.1 0.9-5.9 1-6 2-0.2 0.9 6.5 3.1 6.3 4s-10.8 0-11 0.9 4.7 2.9 4.5 3.8 3.1 2.7 2.9 3.6c-0.2 0.9 1.6 2.4 1.4 3.3-0.2 0.9-8.1-0.2-8.3 0.7 0.9 0.3 2.6-2.8 3.5-2.5s-1 9.4-0.1 9.7c0.9 0.3 3.5-4.5 4.4-4.2s2.3-0.9 3.2-0.6-0.3 6.7 0.6 7c0.9 0.3 4.5-7.3 5.4-7s2.3-0.6 3.2-0.2c0.9 0.3 1 2.9 1.9 3.3 0.9 0.3 3.5-4 4.4-3.6 0.9 0.3-3.5 14.9-2.6 15.3 0.9 0.3 7.5-14.4 8.4-14.1s-0.4 6.5 0.5 6.9c0.9 0.3-0.4 6.3 0.5 6.7 0.9 0.4 1.8 0.7 2.7 1 0.9 0.4 1 2.6 1.9 2.9 0.9 0.4 5.6-8.6 6.5-8.3 0.9 0.4 0.1 4.7 1 5.1s3.9-4.2 4.8-3.8c0.9 0.4-1.9 9.1-1 9.5s1.6 1 2.5 1.4 1.6 1.1 2.4 1.5c0.9 0.4 1.9 0.4 2.7 0.8 0.9 0.4 4.6-5.5 5.5-5.1s3.4-2.7 4.3-2.3c0.9 0.4-3.6 12-2.8 12.4 0.9 0.4 6.2-8.4 7.1-8 0.9 0.4 1.4 1.6 2.2 2.1 0.9 0.4 1.2 2 2 2.4 0.9 0.4 2.7-1 3.6-0.6 0.9 0.4 1.8 0.8 2.6 1.3 0.9 0.4-1.8 7.7-1 8.1s2.1 0 3 0.5c0.8 0.5 6.8-8.6 7.7-8.1 0.8 0.5 0.8 2.5 1.7 3 0.8 0.5 2.2 0 3.1 0.5 0.8 0.5 0.9 2.4 1.7 2.9s-5.3 13.1-4.5 13.6 8.9-11.5 9.7-11 0.5 2.9 1.3 3.4-0.3 4.2 0.5 4.7 1.8 0.7 2.6 1.2-3.1 8.6-2.3 9.1 5.6-5.4 6.4-4.9c0.8 0.5 5.2-4.6 6-4.1s1.6 1.1 2.4 1.6c0.8 0.5-2.6 7.5-1.8 8s6.6-6.4 7.4-5.8c0.8 0.5-2.2 6.7-1.4 7.2s2.4-0.1 3.2 0.4-3.6 8.5-2.8 9c0.8 0.6 6-5.2 6.7-4.6 0.8 0.6-1.2 4.9-0.4 5.4 0.8 0.6-0.1 3.4 0.6 3.9 0.8 0.6 7.7-7.2 8.5-6.6s0.4 2.7 1.2 3.2c0.8 0.6 0.2 2.9 0.9 3.5 0.8 0.6 4.4-2.6 5.2-2s-0.3 3.6 0.4 4.2c0.8 0.6-4 8.1-3.3 8.7s7.2-5.9 7.9-5.3-3.3 7-2.6 7.6 7.5-6 8.2-5.4-2.9 6.3-2.1 7c0.7 0.6 3-0.5 3.7 0.1s-1 4-0.3 4.7c0.7 0.6 10.2-8.7 10.9-8 0.7 0.6-0.8 3.8-0.1 4.5 0.7 0.6-4.7 8-4 8.7 0.7 0.6 5-2.6 5.7-1.9s5-2.5 5.7-1.9c0.7 0.7 2.7 0.1 3.4 0.7 0.7 0.7-0.8 3.6-0.1 4.3 0.7 0.7 1.1 1.7 1.7 2.4 0.7 0.7-0.4 3.1 0.3 3.8 0.7 0.7-1.6 4.2-0.9 4.9 0.7 0.7-2.2 4.7-1.5 5.4 0.7 0.7 9.2-6.2 9.9-5.5s0.3 2.4 1 3.1-3.3 5.7-2.7 6.4c0.6 0.7 4.8-1.8 5.4-1.1 0.6 0.7 5-1.8 5.6-1.1 0.6 0.7-6.5 8.3-5.9 9s10-6 10.6-5.3-2.1 4.3-1.5 5 4.3-1.1 4.9-0.3c0.6 0.7-2.3 4.4-1.7 5.1s-0.8 3.1-0.2 3.8c0.6 0.7 7.2-3.2 7.8-2.4 0.6 0.8-3.2 4.9-2.6 5.7 0.6 0.8-5.9 6.9-5.4 7.7 0.6 0.8 1.5 1.2 2.1 2s10.9-5.6 11.5-4.9c0.6 0.8 2 1 2.5 1.8 0.6 0.8-10.4 9.7-9.9 10.5s13.1-6.8 13.7-6c0.5 0.8-0.2 2.5 0.3 3.3s-5.5 6-5 6.8 7.3-2.4 7.8-1.6-7.8 7.2-7.3 8 5.3-1.1 5.8-0.2c0.5 0.8 1.5 1.3 2 2.2 0.5 0.8 0.7 1.8 1.2 2.6s-3.6 4.3-3.1 5.1c0.5 0.8 9.3-3.1 9.8-2.3 0.5 0.8 2.6 0.8 3.1 1.6s-2.1 3.4-1.7 4.2c0.5 0.8-4.8 4.7-4.4 5.6 0.4 0.8 2.3 0.9 2.7 1.8s3.9 0.2 4.3 1c0.4 0.9-0.8 2.5-0.4 3.4 0.4 0.9 8.3-1.9 8.7-1s-4.5 4.3-4.1 5.2c0.4 0.9-8.5 6-8.1 6.9s14.2-4.3 14.6-3.4c0.4 0.9-4.2 3.9-3.8 4.8s-7.8 5.3-7.4 6.2c0.4 0.9 7-0.9 7.4 0s-0.3 2.1 0.1 3c0.3 0.9-1.1 2.4-0.7 3.3 0.3 0.9 8.3-1.1 8.7-0.2 0.3 0.9-5.2 3.9-4.9 4.8s9.9-1.4 10.2-0.5 0.2 2 0.5 2.9-1.7 2.6-1.4 3.5-8.7 4.7-8.4 5.6 3.1 1 3.4 1.9c0.3 0.9 4.1 0.8 4.3 1.7 0.3 0.9 6.9 0.1 7.2 1s-13.9 5.7-13.7 6.6 2 1.4 2.3 2.3c0.2 0.9 1.7 1.5 1.9 2.4s12.7-1 12.9 0c0.2 0.9-3.2 2.7-3 3.7 0.2 0.9-2.8 2.6-2.6 3.5s-1 2.1-0.8 3.1c0.2 0.9 8.6 0.4 8.8 1.3 0.2 0.9-3.6 2.6-3.4 3.6 0.2 0.9-4 2.6-3.8 3.6 0.1 0.9 1.9 1.7 2 2.6 0.1 0.9-2.4 2.3-2.2 3.2 0.1 0.9-5 2.5-4.9 3.5 0.1 0.9 2.7 1.6 2.8 2.5 0.1 1 12 0.7 12.1 1.6 0.1 1-4.9 2.4-4.8 3.4 0.1 1-1.9 2.1-1.9 3.1 0.1 1-8.5 2.5-8.4 3.4 0.1 1 7.5 1.4 7.5 2.4 0.1 1 3.2 1.8 3.3 2.7 0 1-1.2 2-1.1 2.9 0 1-6.8 2.1-6.8 3 0 1-0.5 1.9-0.5 2.8-1.2 0.1 1.2 1 1.2 1.9z" fill="#FFFFFF" p-id="14872"></path><path d="M527.5 927.9c-1.6 0-2.9-0.3-3.8-0.6h-1.8c-1.3 0-3-0.2-4.6-1-1.5 0.7-3.1 0.9-4.3 0.9-1.6 0-3.7-0.3-5.7-1.7-1.5 1-3.6 1.8-6.1 1.8-0.8 0-1.6-0.1-2.3-0.3-1.1 0.3-2.2 0.5-3.6 0.5-1.9-0.1-5.7-0.7-8.2-4.6-1.6 1.2-3.8 2.1-6.6 1.9-0.7 0-1.4-0.1-2-0.3-1.1 0.4-2.4 0.5-3.9 0.4-1.6-0.1-6.5-0.9-8.9-6.5-1.5 0.8-3.3 1.2-5.5 1-2.5-0.2-4.4-1.2-5.8-2.5-0.9 0.1-1.8 0.2-2.8 0-2.3-0.2-4-1-5.3-2.1-1.9 2.2-5 4.6-9.7 4-0.7-0.1-2.1-0.4-3.6-1.2-0.7 0-1.4 0-2.1-0.1-1.4-0.2-2.6-0.6-3.5-1-1.4 1.3-3.3 2.4-5.7 2.7-1.3 0.5-3.6 1.1-6.2 0.6-1-0.2-2-0.3-2.9-0.5-1.5-0.3-4.2-1.1-6.2-3.6-1.5 0.5-3.3 0.7-5.3 0.3-2.9-0.6-4.8-2-6.1-3.8-2.3 0.7-4.3 0.4-5.2 0.2-1.8-0.4-3.1-1.1-4-1.6l-1.5-0.6c-2.6 1.1-5 0.8-6.4 0.5-4.2-1-6.3-4-7.3-6.5-1.7 0.5-3.8 0.9-6.3 0.2-3.6-1-5.6-3.4-6.7-5.6-0.1-0.1-0.2-0.1-0.3-0.2-1.4 1.4-3.3 2.6-5.6 3.1-1.8 0.9-4.9 1.9-8.5 0.8-3.4-1.1-5.2-3.4-6.3-5.4l-1.2-0.3c-1.3-0.4-3.5-1.5-5.1-3.8-1.2-0.4-2.2-1-2.9-1.4-2.4 1.8-5.6 2.9-9.6 1.4-2.7-1-4.3-2.8-5.3-4-1.1-0.9-2.2-2.2-2.8-4-0.4-0.1-0.9-0.3-1.3-0.4-3.5-1.4-5.2-3.9-5.9-6.5-1.2 0-2.4-0.3-3.8-0.9-2-0.9-3.4-2-4.3-3.4-1 0.3-2 0.4-3.1 0.3-5 4.3-9.9 2.6-11.5 1.8-1.5-0.7-6.2-3.5-5.8-10.3-4.1 1.8-7.6 0.4-8.8-0.2-0.4-0.2-0.8-0.4-1.2-0.7-3.6 1.3-6.6 0.1-8.1-0.7-0.1-0.1-0.3-0.1-0.5-0.2-0.6-0.2-1.4-0.6-2.2-1.1-2.1-1.1-3.4-2.7-4.2-4.2-1.9 0.2-3.9 0-6.1-1.2-0.1 0-0.1-0.1-0.2-0.1-0.7-0.3-1.7-0.7-2.8-1.3-1.8-1.1-3-2.4-3.7-3.8-1.6-0.3-2.8-0.9-3.6-1.4-1.1-0.7-2.9-2.1-3.9-4.5-1-0.3-2-0.7-3-1.4-1.7-1.1-4.8-3.8-4.6-9-0.9-1.1-1.8-2.5-2.2-4.4-0.5 0.1-1.1 0.2-1.5 0.2-2.2 0.8-6.6 1.8-10.7-1.2-0.7-0.5-1.6-1.3-2.4-2.4-1.7-0.1-3.6-0.7-5.4-2.1-0.8-0.6-1.5-1.3-2-2-3-0.1-5.2-1.5-6.1-2.2-0.4-0.3-0.7-0.6-1-0.9-1.4-0.3-2.8-1-4.2-2.1-1.3-1.1-2.9-2.8-3.4-5.4-1.9-0.2-3.8-0.9-5.7-2.5-1.9-1.7-5.8-6.4-1.5-14.2l0.3-0.6c-2.8 0.9-7.7 1.9-11.8-2.1-0.3-0.3-0.6-0.6-0.8-0.9-3.9 0.4-6.6-1.4-8.1-3-1.6-1.7-3.7-4.8-2.6-9.2-1-0.5-1.9-1.2-2.8-2.2-1-1.1-2.7-3.5-2.7-6.8-0.5-0.4-1-0.9-1.5-1.4-0.6-0.7-1.8-2.3-2.3-4.6-3.4-0.4-5.5-2.5-6.5-3.7-0.1-0.1-0.2-0.2-0.3-0.4-1.6-0.6-3.2-1.6-4.6-3.4-1.5-1.9-4.3-6.8 0.4-13.2-0.2-0.3-0.4-0.6-0.5-0.9-6.1 0.9-9.3-3-10.2-4.3-1.7-2.5-2.1-5-1.7-7.2-0.2-0.2-0.3-0.4-0.5-0.6-3.3 0.5-8.5 0.4-11.6-4.8-1.8-2.9-1.7-5.8-1.5-7.5 0-0.4-0.1-0.8-0.1-1.2-2-0.7-4.1-2.1-5.5-4.8-0.2-0.4-0.6-1.2-0.8-2.1-1.3-1.1-2.1-2.4-2.4-3.1-0.5-1-1-2.3-1.2-3.8-1.3-0.9-2.5-2.2-3.4-4.1-0.4-0.9-0.9-2.3-1-4-1.3-0.9-2.4-2.3-3.2-4.1-2.1-4.7-0.3-8.5 1.7-11-2.2-1.6-3.2-3.7-3.5-4.6-0.1-0.2-0.1-0.4-0.2-0.6-2.4-0.9-5.4-2.7-6.8-6.6-0.5-1.3-0.6-2.5-0.7-3.3v-0.2c-0.5-2-1.2-6.8 3.6-10.9-0.5-2-0.3-3.8 0.2-5.3-0.9-0.7-1.7-1.6-2.4-2.8-4-1.3-5.7-4.1-6.5-6.1-0.5-0.8-1.3-2.3-1.7-4.2-0.3-1.4-0.3-2.6-0.2-3.7-0.3-0.7-0.5-1.5-0.7-2.3-0.4-2-0.2-3.7 0.3-5.1-1.9-1.4-3.4-3.4-3.9-6.7-0.5-3.4 0.6-6 2-7.8-3.5-2.4-4.2-6-4.3-7.4-0.1-1.2-0.1-3.2 0.9-5.3-0.1-0.3-0.1-0.7-0.1-0.9-0.1-0.8 0-1.9 0.3-3.1-1.7-2-2.1-4.3-2.2-6-0.1-1.6 0.2-3.9 1.6-6-0.3-1-0.5-2-0.5-3.2 0-1.5 0.3-3.6 1.5-5.5-0.4-1.1-0.6-2.3-0.5-3.7 0.1-1.7 0.6-5 3.7-7.5-0.4-1.1-0.7-2.2-0.7-3.6-1.3-1.8-2.3-4.2-2-7.3 0.1-1.1 0.6-3.9 3-6.2-0.1-1.1-0.1-2.1 0-2.7 0.2-1.3 0.9-4.7 4.3-7 0.1-0.5 0.3-1 0.5-1.4-2.5-2.1-4.5-5.3-3.6-10 0.5-2.3 2.4-7.5 9.9-8.3 0.2-0.5 0.4-1 0.6-1.4-4.4-4.1-3.5-8.8-3-10.4 0.9-3 2.7-4.8 4.5-6-1.6-2.3-2.3-5.2-1.1-8.8 0.4-1 1.1-2.6 2.5-4-1.7-3.2-1.1-6.2-0.3-8.1 1-2.6 2.7-4.2 4.5-5.2-0.3-1.7-0.2-3.7 0.8-5.8 0.8-1.7 2.8-5 7.4-5.8 0-0.1 0.1-0.2 0.1-0.3-1.5-2.5-3-6.4-0.7-10.8 1-2 3.1-4.6 7.1-5.3 1.1-1.4 2.4-2.3 3.8-2.9-2.4-4.7-0.5-8.6 0.3-9.9 1.1-1.9 2.6-3.1 4.1-3.9-0.5-3.2 0.8-5.7 1.6-6.9 0.9-1.4 2-2.4 3.1-3.1 0.2-0.5 0.5-1 0.9-1.5 2.3-3.3 5.4-4.4 8.2-4.4 1.4-1.3 3-2 4.5-2.3-0.5-2-0.4-3.7 0-5.2 0.1-1.6 0.5-4.4 2.5-6.9 0.5-0.6 1-1.2 1.8-1.8 0-3.1 1.4-5.4 2.4-6.5s4-4.1 9.1-3.5c0.4-1 1-1.9 1.9-2.9 0.5-0.6 1.1-1.1 1.6-1.5 0.1-3.3 1.7-5.6 2.8-6.7 0.2-0.2 0.5-0.5 0.7-0.8 0.4-0.5 0.9-1 1.3-1.5l0.4-0.4c0.5-2.4 1.8-4 2.7-4.9 1.2-1.2 5.5-4.8 12-1.9v-1c-0.7-2.5-2-8.1 2.7-12.3 1-0.9 3.9-3.1 8.1-2.5 0.6-1.1 1.4-2.3 2.7-3.4 0.5-0.4 1-0.8 1.5-1.1 0.3-2.2 1.3-4.7 3.8-6.7 1.1-0.9 2.1-1.4 2.8-1.8 0.1 0 0.1-0.1 0.2-0.1 1.3-0.9 4.1-2.4 7.8-1.8 0.3-3.4 2.4-5.6 4-6.8 0.9-0.7 3.4-2.2 6.7-2l0.6-0.6c0.4-2.4 1.5-5 4.3-6.9 1.5-1 4.8-2.7 9-1.2 0.9-3.1 3-4.9 4.3-5.7 0.8-0.5 2.7-1.5 5.3-1.6 0.8-1 1.6-1.7 2.3-2.2 0.7-2 2-3.9 4.4-5.3 4.4-2.6 8.5-1.2 11 0.1 0.5-4.7 3.6-7 5.2-7.8 1.3-0.7 2.5-1.1 3.6-1.2 0.5-0.4 1.2-0.8 1.9-1.2 1.3-0.7 5-2.2 9.3-0.1 0.7-0.7 1.6-1.4 2.6-2 1.3-2.6 3.4-4 4.7-4.6 1.5-0.7 6.4-2.5 11.5 1.7 0.9-1.3 2.2-2.4 4.1-3.2 1.7-0.8 3.3-1 4.2-1.1 2.2-0.6 4.1-0.5 5.8 0.1 0.2-0.2 0.4-0.4 0.5-0.6 0.9-1.5 2.6-3.8 5.7-5.1 1.6-0.6 3-0.8 4.3-0.8-0.4-3 0-5.3 0.7-7-0.1-0.4-0.3-0.9-0.4-1.4-0.6-3.1 0.1-5.6 1.4-7.5-0.2-0.4-0.3-0.9-0.4-1.4-1.3-1.3-2.7-3.3-3.1-6.1-0.4-3.1 0.4-5.5 1.7-7.3 0-0.8 0-1.6 0.2-2.4-0.3-0.8-0.5-1.6-0.6-2.6-0.1-0.9-0.1-2.2 0.3-3.7-4-2.6-4.6-6.5-4.7-8-0.2-2.8 0.7-5 2-6.7-1.4-2.2-1.6-4.4-1.7-5.4 0-1.2 0.2-2.3 0.4-3.3-1.5-2.2-1.7-4.5-1.7-5.8 0-1.4 0.4-5.6 4.5-8.4-0.3-1.1-0.5-2.3-0.4-3.7 0-0.4 0.1-0.9 0.2-1.5-0.8-1.8-0.8-3.6-0.7-4.7 0.1-1.8 0.7-3.3 1.2-4.4 0-0.5 0-1 0.1-1.6s0.2-1.7 0.7-2.9c-1.6-2.7-1.4-5.3-1.3-6.4 0.2-1.6 1-4.7 4-6.8 0.5-1.9 1.4-3.4 2.6-4.5-1.3-2.6-1-5.1-0.7-6.5 0.3-1.5 1.3-4.3 4.1-6.2 0-0.7 0.2-1.5 0.4-2.2 0.6-2.2 1.7-3.8 3-4.9-5.5-4.5-4.4-9.6-3.6-11.8 0.2-0.6 0.5-1.1 0.8-1.6-0.1-1.5 0.1-3.1 0.8-4.8 1.2-2.7 3.1-4.3 4.4-5.2 0.2-1 0.5-2.1 1.1-3.2 1-1.9 2.9-4.4 6.5-5.2-2.5-5.2 0-9.3 1-10.6 1.1-1.4 3.6-4 7.8-4 0.4-1.8 1.3-4 3.3-5.8 3.9-3.6 8-3.1 11.4-1.7 1.2-0.5 2.4-0.7 3.6-0.8 0.3-0.2 0.7-0.4 1-0.6 1.1-0.6 2.3-1 3.3-1.2 0.4-3.5 1.6-10.6 9-11.9 4.2-0.7 7.4 1.2 9 2.4 1.7 0.6 3 1.6 4.1 2.8 1.2 0.1 2.3 0.4 3.2 0.9 1.5-1 3.2-1.7 5.2-1.8 1.8-0.6 5-1.2 8.5 0.3 2.1 0.9 3.5 2.3 4.3 3.1 1.9 1.3 4.5 4 4.3 8.9 0.5 0.3 1 0.6 1.4 1 1.3 1.1 2.2 2.2 2.7 3.4 6.2-1.6 9.8 2.1 10.8 3.4 0.6 0.8 2 2.7 2.2 5.4 1.3 0.7 2.5 1.8 3.5 3.4s1.5 3.1 1.7 4c1.5 3.1 1.1 6 0.2 8.4 0.2 0.1 0.3 0.3 0.5 0.4 1.6 0.9 3.9 2.5 5.2 5.6 0.7 1.7 0.9 3.3 0.8 4.7 1.1 1 2.1 2.4 2.7 4.2 1.2 3.5 0.4 6.4-0.9 8.6 0.2 0.4 0.3 0.9 0.5 1.3l0.3 1.2c2.4 1.1 4.7 3.2 5.5 6.9 0.3 1.3 0.4 2.4 0.4 3.1v0.3c0.1 0.6 0.2 1.1 0.2 1.6 3.2 2 4.1 5.1 4.4 6.7 0.3 1.7 0.4 5.1-2.1 8.2 0 0.5 0 1-0.1 1.5 0.4 0.5 0.8 1 1.2 1.6 1.3 1.3 3.3 3.6 3.6 7.2 0.2 1.8 0.2 7.6-6.8 10.8 0.1 0.6 0.2 1.2 0.3 1.9 0.1 2.6-0.6 4.7-1.7 6.2 0.9 0.6 1.8 1.3 2.5 2.2 1.6 1.1 4.2 3.2 5.1 6.7 0.6 1.2 1.5 3.2 1.4 5.8 0 2.5-0.9 6.3-5.2 8.6v0.2c-0.1 2.1-0.7 3.7-1.5 5 2.9 1.3 4.6 3.1 5.5 4.9 0.8-0.1 2.3 0 3.9 0.5l1.8-0.3c2.4-0.2 4.4 0.3 5.9 1.3h0.1c1.6-0.1 3 0.1 4.2 0.5 0.3-0.2 0.7-0.4 1-0.5 1.2-0.9 3.4-2.2 6.4-2.4 1 0 3.1 0 5.2 1.2 0.9-0.8 1.8-1.4 2.6-1.7 1.3-1 3.6-2.4 6.8-2.5 2.9-0.1 5.2 0.9 6.8 2.4 0.8 0.1 1.8 0.2 2.8 0.6 1.6-1.7 4.2-3.7 8.1-3.7h0.1c2.4 0 6.2 0.8 8.6 5h0.5c0.6 0 1.3-0.1 2.2-0.1 2.3-1.7 4.8-1.9 6.2-1.8 0.5 0 1.2 0.1 2 0.3 1.4-0.5 2.8-0.6 3.9-0.5 2.3 0.1 7.6 1.1 9.6 8.1 0-0.1 0.1-0.3 0.1-0.4-0.3-0.8-0.5-1.8-0.6-2.8-0.3-3.6 1.2-6.3 2.2-7.8 0.2-0.5 0.4-0.9 0.7-1.4-0.4-1-0.6-2.1-0.7-3.3v-0.7c-2.2-1.6-4.4-4.2-4.5-8.4 0-1.1 0.1-2.9 1-4.7-0.6-1.3-1-2.8-1-4.5 0-4.2 2.4-6.9 3.8-8.2l0.9-1.2c-4.2-3.1-4.3-7.5-4.2-9 0.1-1.7 0.6-3.2 1.3-4.3-0.6-1.4-0.9-3-0.7-4.9 0-0.4 0.1-0.7 0.1-1.1 0.1-0.7 0.1-1.4 0.2-2 0.3-2.8 1.9-7.3 8.3-8.8 0-0.8 0-1.6 0.2-2.4 0.3-1.5 0.8-2.8 1.4-3.8v-0.5c-1.6-2.1-2.6-4.8-1.7-8.4 0.7-2.9 2.2-4.7 3.9-5.9-3.6-3.9-2.9-8.1-2.2-10 0.4-1.2 1.7-4.2 5.1-5.9 0.1-0.7 0.3-1.5 0.6-2.3 0.9-2.3 2.3-3.8 3.8-4.8 0.1-1.1 0.4-2.4 1.1-3.6 0.1-0.3 0.4-0.7 0.7-1.2-0.1-2.5 0.8-4.4 1.3-5.2 0.5-0.9 1.1-1.7 1.8-2.4-0.5-2.3-0.2-4.9 1.7-7.6 1.5-2.2 3.4-3.4 5.3-4 0.4-1.2 1.1-2.5 2.2-3.7 1.1-1.2 2.3-2.1 3.5-2.6 0.5-0.8 1.1-1.6 1.9-2.3 1.9-1.7 3.8-2.4 5.1-2.8 2.8-1.5 5.6-1.4 7.5-1.1 1.2-0.6 2.4-0.9 3.5-1 1.2-1.8 2.9-3.1 5.1-3.9 2.4-0.8 4.5-0.7 5.6-0.6h1.2c2-1.3 4-1.5 4.6-1.6 0.7-0.1 2.9-0.1 5.2 0.9 1.4-0.7 2.7-1 3.9-1.1 1.1-0.3 3-0.8 5.3-0.5 4.8-4.1 9.5-2.5 11-1.8 5.3 2.4 6.2 7.5 6.5 10 0.5 1.2 0.8 2.3 0.9 3.5 0.9 0.9 1.6 1.9 2.1 2.8 2.4-0.1 6.3 0.2 9.3 3.6l0.1 0.1c1.6 0.4 3.3 1.1 4.8 2.5 1.1 0.6 2.7 1.8 4.1 3.7 1 1.5 2.6 4.6 1.4 8.5 0.3 0.7 0.6 1.4 0.7 2 0.7 0.7 1.4 1.6 2 2.7 0.3 0.6 0.8 1.8 1 3.3 2.8 1.5 4 3.9 4.5 4.9 1.2 2.9 0.9 5.5 0.6 7.1 0 1-0.1 2-0.4 2.9v0.1c0.5 1.4 0.7 2.6 0.7 3.8 4.6 1.3 6.3 4.7 6.9 7 0.3 1 0.4 1.9 0.4 2.8 2.4 1.7 3.4 4.1 3.8 5.9 0.5 2.5 0.2 4.6-0.6 6.4 1.5 1.4 2.8 3.3 3.2 6 0 0.2 0.1 0.4 0.1 0.6 0.2 0.7 0.4 1.5 0.5 2.4 0.6 4-1 6.8-2.9 8.8-0.2 2.2-1.1 5-4.2 7.3 1.3 1.4 2.2 3.4 2.4 6v0.9c1.9 1.6 3.9 4.1 4 8 0.1 2.3-0.6 7.6-7.2 10.1v0.3c3.1 1.3 8.4 4.1 8.1 10.8-0.1 2.9-1.3 5.1-2.7 6.6 0 0.4-0.1 0.7-0.2 1.1 2.4 2.9 2.4 6.1 2.3 7.3-0.1 0.9-0.3 1.8-0.5 2.5 1.2 1.7 1.9 3.9 1.5 6.8-0.1 0.8-0.3 1.7-0.7 2.7 0.2 1.3 0.2 2.5 0 3.4-0.3 1.9-1 3.5-1.8 4.6 0.3 1.3 0.4 2.7 0.1 4.4-0.1 0.6-0.3 1.6-0.9 2.7 0.9 0 2 0.1 3.2 0.4 2-0.8 4.5-1.1 7.2-0.1 0.4 0.1 0.8 0.3 1.3 0.6 1.8-0.2 3.4 0.2 4.6 0.7 4.6 1.8 6.1 5.5 6.6 8.8 2.6-0.5 4.7 0.2 5.6 0.6 0.4 0.2 0.7 0.3 1 0.5 1.5-0.1 3.1 0.1 4.8 0.8 1.3 0.6 4.8 2.5 5.9 7.1 2.3-1.5 6.3-3.3 10.9-1.1 1.3 0.6 3.5 2 4.8 4.7 1.5 0.8 2.6 1.8 3.4 2.6 1.3 0.1 2.8 0.4 4.2 1.2 0.3 0.2 0.6 0.3 0.9 0.4 0.6 0.3 1.2 0.6 1.7 0.8l0.6 0.3c4.1-2 7.7-0.7 9.3 0.2 1.5 0.8 2.6 1.8 3.4 2.8 0.5 0.2 1 0.4 1.5 0.7 2.2 1.3 3.6 3 4.4 4.5 1.1 0.3 2 0.7 2.7 1.1 3.5 2.1 4.7 5.4 5.2 7.4 0.2 0.5 0.5 0.9 0.6 1.4 2.6-1 5.8-1.3 9.2 0.9 0.5 0.3 1 0.7 1.5 1 0.3 0.2 0.7 0.4 1 0.7 0.3 0.2 0.5 0.4 0.8 0.5 2.4 0.2 4.1 1.2 4.9 1.7 4.1 2.8 4.8 6.8 4.4 10.1 0.4 0.5 0.7 1 1 1.7 0.2 0.1 0.4 0.3 0.6 0.4 0.4 0.3 0.8 0.6 1.2 1 3.8-0.6 6.6 1.1 7.7 1.9 1.1 0.9 2 1.8 2.6 2.8 1.6 0.2 3.2 0.8 4.9 2.1 2.6 2 3.6 4.7 4 6.9 0.5 0.3 1 0.6 1.2 0.9 2.9 0.2 4.9 1.7 5.7 2.3 0.8 0.7 1.4 1.4 1.9 2.1 5.3-2 9 0.4 10.5 1.8 2.5 2.2 3.3 4.9 3.5 7.2 0.1 0 0.1 0 0.2 0.1 1.8 0.1 4.7 0.7 7.3 3.1 2.9 2.8 3.3 6.1 3.2 8.6 0.9 1.4 1.3 2.8 1.6 4.1 2.5 0.6 4.1 2 5 2.9 1.3 1.4 2 2.8 2.5 4.1 2.4 0.1 4.9 1 7.1 3.5 0.2 0.2 0.4 0.5 0.7 0.9 2 0.8 3.4 2.1 4.1 2.9 0.9 1 1.5 2.1 1.9 3.2 0.6 0.5 1.2 1 1.7 1.7 1 1.2 1.6 2.3 1.9 3.5 1.5 0.6 2.9 1.6 4.2 3.2 2 2.6 2.4 5.2 2.1 7.6 0.8 0.4 1.4 0.8 2 1.3 1.1 0.6 2.9 1.7 4.3 3.7 0.3 0.5 0.7 1.1 1 1.7 1.3 0.9 2.3 1.9 2.9 2.9 1.7 2.5 2 5.2 2 6.9v0.2c0.5 0.5 0.9 1 1.3 1.7 0.8 1.3 2.9 5.2 0.5 10 0 0.1 0.1 0.1 0.1 0.2 0.1 0.2 0.2 0.4 0.4 0.6 1.8 0.2 3.2 0.8 4.3 1.5 1.8 0.6 4.7 2 6.5 5.3 2.1 3.8 1.3 7.4 0.2 9.8 3.5 0 7.2 1.2 9.4 5.8 1.1 2.3 1.2 4.4 0.9 6.2 0.8 0.9 1.3 1.8 1.6 2.7 2.2 5-0.1 9.1-2.2 11.6 2.2 0.6 4.3 1.9 5.8 4.5 4.1 1.5 5.7 4.9 6.1 6.2 0.5 1.6 0.7 3 0.7 3.8 0.7 2.8 0.1 5.2-0.6 6.9 2.4 1.1 4.7 3 5.7 6.6 0.4 1.5 0.7 3.7-0.2 6 2.4 1.8 3.3 4.3 3.6 5.7 0.6 2.5 0.2 4.6-0.6 6.4 1.4 1.3 2.5 3.1 3 5.7 1.1 5.9-2.9 9.5-5 11.1 0 0.1-0.1 0.1-0.1 0.2v1.2c6.3 1.8 7.5 6.7 7.7 8.9 0.6 5.6-3.1 8.8-5.8 10.5 0.8 1.3 1.4 3 1.5 5 0.1 2.6-0.7 4.6-1.3 5.9 3.7 2 4.9 5 5.4 7.1 0.4 1 1 2.9 1 5.1-0.1 2.7-1.1 4.8-2.3 6.4-0.2 2.9-1.4 4.9-2.9 6.4 1.1 2.2 1 4.3 1 5.3-0.2 2.4-1.2 4.3-1.9 5.4-0.3 0.8-0.7 1.5-1.1 2.2 0 0.4 0 0.8-0.1 1.2-0.1 0.9-0.5 2.7-1.7 4.4 0.4 1.3 0.5 2.8 0.2 4.5-0.3 2.2-1.3 3.9-2.4 5.2 5 3.4 5 8 4.5 10.6-0.7 3.2-2.5 5.2-4.3 6.5 2.5 3.4 2.1 6.9 1.6 8.6-0.7 2.7-2.1 4.4-3.8 5.6 0.5 1.7 0.6 3.7-0.1 6-1 3.3-3.3 5.1-4.8 6.1-0.9 0.9-2 1.8-3.6 2.5 1.1 2.2 1.4 4.8 0.2 7.9-0.6 1.6-3.1 6.5-10.1 6.5h-0.2v1.2c0.3 1.3 0.5 3.2-0.1 5.3 1.9 3.8 0.8 7.3 0 8.9-1.2 2.5-3.1 4-4.9 4.9-1 1.7-2.3 2.9-3.7 3.7 0.4 2 0.1 4.2-1.2 6.7-1.1 1.9-2.5 3.1-3.8 3.9l-0.3 0.6c-0.2 0.4-0.5 0.7-0.7 1-0.1 1.5-0.6 3-1.6 4.6-0.4 0.7-0.9 1.3-1.4 1.9-0.3 1.6-1 2.8-1.4 3.4-1 1.5-2.1 2.5-3.3 3.2 0.3 2.1 0.2 5-1.7 7.7 0 1.4-0.2 2.9-0.9 4.4-0.3 1.1-0.8 3-2.1 4.8-0.7 1-2.1 2.4-4.2 3.3-0.2 0.3-0.4 0.5-0.5 0.7-1 1.3-2.1 2.2-3.2 2.8-0.3 0.5-0.6 1-1 1.5-0.5 0.6-1 1.1-1.5 1.6 0.2 3.3-1.4 5.7-2.4 6.9-2.8 3.4-6.3 3.9-9.3 3.5-0.1 0.1-0.1 0.2-0.2 0.2-1.2 1.4-2.5 2.2-3.5 2.7-0.6 1.9-1.6 3.2-2.3 4-1.3 1.4-2.7 2.3-4.1 2.8 0 1.5-0.3 2.7-0.8 3.8-0.3 1.6-1 4.2-3.2 6.4-0.9 0.9-2.5 2.1-4.7 2.7-0.2 0.2-0.4 0.4-0.5 0.6-1.3 1.3-4.5 3.6-9 2.6-0.5 0.9-1.1 1.8-2 2.6 1.5 5.3-1.1 8.7-3.1 10.4-1.9 1.7-5.6 3.7-10.6 1.6 0.6 5.2-2.6 8.3-3.8 9.2-0.7 0.6-1.9 1.3-3.3 1.8-0.9 2.3-2.5 3.7-3.3 4.3-1.2 0.9-2.3 1.4-2.9 1.7l-0.1 0.1c-1.6 1.1-3.2 1.6-4.2 1.8-1.4 0.6-3.2 1.1-5.4 0.9-1.8 1.1-3.6 1.5-5.3 1.4 0.2 5.1-2.9 7.8-4.5 8.9-2.6 1.7-5.1 2-7.3 1.6-0.5 4.2-3.2 6.4-4.7 7.3-2 1.2-3.9 1.6-5.6 1.6-0.8 1.8-2.1 3.6-4.4 5-1.4 0.8-3.6 1.7-6.1 1.3-0.7 0.7-1.4 1.3-2.4 1.8-1.1 0.6-2.3 1-3.3 1.2-0.9 1.4-2.2 2.8-4.1 3.8-1.7 0.9-5.5 2.3-9.8-0.2-0.2 5.9-4.3 8.4-5.8 9-3 1.4-8.8 2.7-14.3-5.3-0.6-0.9-1.3-1.9-2-3-0.3 0.1-0.6 0.1-0.8 0.2-0.4 1.6-1.2 3.4-2.6 4.9-0.4 0.7-1 1.6-1.9 2.5 0 3.4-1 8.5-6.5 10.7-1 0.4-2.7 0.9-4.7 0.7-1.4 3.3-4.1 4.8-5.7 5.4-1.6 0.6-3.9 1.1-6.4 0.3-0.7 0.5-1.5 0.9-2.5 1.3-0.8 0.3-1.6 0.5-2.3 0.6-1.3 1-2.5 1.6-3.2 1.8-2.1 0.7-4 0.8-5.7 0.3-1.5 2.3-3.7 3.5-5.3 4-6.3 2-10.6-2.4-12.4-4.5-0.9-0.5-1.6-1-2.2-1.5-0.1 0-0.2 0-0.3 0.1-0.5 0.5-1.2 1-1.9 1.5-1.5 5-5.6 6.6-7.1 7-1.9 0.5-6 1.1-9.7-2.5-1.2 1.4-2.8 2.6-5.2 3.1-1 2.5-3.1 5.7-7.6 6.8-2.4 0.5-4.4 0.2-5.7-0.1-1.5 0-2.8-0.4-4-0.9-0.5 0.1-1.1 0.2-1.8 0.1-0.9 3.4-3 7.3-8.2 8.3-2.3 0.4-4.2 0.2-5.8-0.5-2 2.2-4.4 2.9-5.8 3.1-1.4 0.2-3.8 0.3-6.2-0.9-1.2 0.5-2.2 0.8-2.8 0.9-0.3 0-0.6 0.1-0.9 0.1-1.2 0.9-2.8 1.7-4.8 1.9-2.1 0.3-5.4 0.1-8.2-2.6-1.1 0.6-2.4 1.1-3.9 1.3-0.8 0.1-2.5 0.2-4.5-0.5-0.6 0.2-1.1 0.2-1.5 0.3-1.1 0.1-3 0.1-5-0.7-1.1 0.6-2.4 1-3.8 1.1-1.9 0.2-3.5-0.2-4.8-0.7-0.4 0.1-0.7 0.1-1.1 0.1-1.3 0.1-2.5 0-3.6-0.3-0.7 0.2-1.5 0.4-2.3 0.4-3.4 0.2-5.9-1-7.7-2.6-1.2 3.6-3.7 7.9-9.8 8.2-1 0-2.2 0-3.4-0.4-1.3 0.8-3.2 1.5-5.5 1.6 0.8-0.3 0.7-0.3 0.6-0.3zM428 916.7z m-5.7-1z m-0.1 0s0.1 0 0 0c0.1 0 0 0 0 0z m125.6-0.2z m0.1 0s-0.1 0 0 0c-0.1 0 0 0 0 0z m-143.3-1.8c0.2 0 0.3 0.1 0.5 0.1-0.2 0-0.3-0.1-0.5-0.1z m-17.7-2.3c0.1 0 0.1 0 0 0 0.1 0 0.1 0 0 0z m234.2-0.3c-0.1 0-0.1 0 0 0z m14.7-0.7c-0.1 0-0.1 0 0 0-0.1 0-0.1 0 0 0z m-268.2-6.8c0.1 0 0.1 0 0 0 0.1 0 0.1 0 0 0z m-20.9-1.9h0z m210.1-1.9c0.9 0 1.8 0.2 2.6 0.4 0.9-3.8 3.1-8.8 9.4-9.4 1.2-0.1 3.2-0.1 5.3 0.9h0.4c0.8-0.1 2.4-0.2 4.2 0.4 1.4-1.8 3.5-3.3 6.6-3.7 2.2-0.3 5.6-0.1 8.4 2.9 1.2-1 3-2.2 5.7-2.7 0.4-0.1 0.8-0.1 1.3-0.1 1.3-1.8 3.4-3.4 6.5-4 2.8-0.5 5.1 0.1 6.9 1.2 1.2-2.1 3.3-3.9 6.6-4.6 1.8-0.4 7.8-1 11.6 6.1 1-1.4 2.5-2.7 4.6-3.5 1.2-1.9 3.1-3.6 6.1-4.4 0.3-0.1 0.6-0.1 0.9-0.2 1.2-2 3.1-4.1 6.4-5 1.2-0.3 3.4-0.7 5.8 0.1 0.4-0.1 0.9-0.2 1.3-0.3 1-0.8 2.2-1.5 3.8-2 0.8-0.2 1.5-0.4 2.3-0.4 0.8-0.6 1.8-1.1 3-1.4 2.2-0.7 4.2-0.6 5.8-0.1 1.4-1.8 3.3-2.7 4.8-3.2 2-0.7 6.7-1.5 10.9 3.1 0.1-0.1 0.3-0.1 0.4-0.2 0-6.9 4.5-9.4 6.6-10.2 2.4-0.9 5.4-1.2 8.5 0.7 0.2 0 0.5-0.1 0.8-0.1 0.9-0.7 1.8-1.1 2.3-1.3 1.3-0.5 3.8-1.2 6.6-0.4 0.7-2 2-4.2 4.5-5.7 0.7-0.6 1.9-1.6 3.5-2.3s3.1-1 4.1-1.1c0.4-0.1 0.8-0.2 1.1-0.3 0.9-1.5 2.3-3 4.5-4 2.5-1.2 5.8-1.8 9.4 0.4 0.7-0.6 1.5-1.2 2.4-1.6 1.2-0.6 2.4-1 3.6-1.1 0.5-0.4 1-0.7 1.6-1 1.4-0.7 4.3-1.8 7.7-0.7-0.9-6.6 3-9.7 5-10.8 2.4-1.3 6.6-2.7 11.4 1 0.7-3.7 3.2-5.8 4.6-6.6 2.2-1.4 4.3-1.7 6.2-1.5 0.3-4.2 3-6.5 4.4-7.5 2.8-1.9 5.6-2 7.9-1.5 0.5-2 1.6-4 3.9-5.7 1.2-0.8 3.5-2.1 6.6-1.9 0.3-2.2 1.3-4.9 4-7 1.2-0.9 3.6-2.4 6.8-2.1 0.1-0.1 0.3-0.2 0.4-0.2 0.2-1.6 0.9-3.2 2.1-4.8 0.5-1 1.4-2.5 3-3.9 0.2-0.2 0.4-0.3 0.6-0.5 0.7-1.8 1.8-3.1 2.8-4 2.9-2.5 6-2.8 8.6-2.4 0.4-1.8 1.2-3.6 3-5.3 0.2-0.2 0.5-0.4 0.8-0.6 0.7-1.8 1.8-3.2 2.5-3.9 1-1 2.5-2.1 4.4-2.6 0.6-1.2 1.3-2.1 1.9-2.7 1-1.1 2.1-1.8 3.2-2.3-0.2-3.5 1.6-6 2.7-7.2 0.8-0.9 3.1-3 6.8-3.3 0.2-0.3 0.5-0.7 0.8-1 1.4-1.6 3-2.6 4.6-3.1 0.5-1.1 1.1-2 1.6-2.6 1.7-2.1 3.8-3.1 5.5-3.6-0.8-3.8 0.8-6.8 1.8-8.1 1.4-1.8 3.9-4.2 8.2-4-1.2-2.8-1.5-6.1 0.9-9.6 0.9-1.4 2-2.4 3.1-3 0.3-1.8 1-3.1 1.4-3.7 1.5-2.4 3.5-3.7 5.5-4.3 0.8-1.1 1.7-1.9 2.7-2.5-0.2-0.9-0.2-1.8-0.1-2.7-0.2-1.7-0.3-4.4 1.2-7.2 1.2-2.2 2.8-3.5 4.4-4.3-1.7-3.7-0.7-7 0.1-8.5 0.5-1.1 2.1-3.8 5.5-5.1 0.1-0.4 0.3-0.7 0.4-1.1 0.6-1.3 1.3-2.4 2.2-3.2-0.1-1.3 0.1-2.8 0.8-4.4 0.5-1.3 1.7-3.5 4.3-5v-0.2c0-0.5 0-1.2 0.1-2-0.1-1.3-0.2-3.2 0.5-5.4 0.6-1.8 2.4-5.4 7.2-6.6 0-0.8 0.2-1.6 0.4-2.5 0-0.1 0.1-0.2 0.1-0.3-2.1-2.7-2.3-5.5-2-7.4 0-0.9-0.1-2.4 0.4-4.1 0.3-1.4 0.9-2.5 1.5-3.4-1.9-2.7-1.8-5.6-1.4-7.6 0.8-4 3.4-6.2 5.6-7.4-1.9-1.9-3.3-4.6-2.8-8.4 0.2-1.3 1-4.7 4.4-7-1.6-2.5-1.6-5.1-1.5-6.2 0.4-5.7 4.5-8.1 8-9.3 0.1-0.2 0.3-0.5 0.4-0.7-1.5-0.9-2.6-1.9-3.3-3-1.6-1.4-4.2-4.1-4.3-8.6 0-1.6 0.3-3 0.5-3.8 0.1-1 0.2-1.8 0.5-2.6-1.8-1.5-3.2-3.7-3.4-6.9-0.2-3.5 1-6 2.8-7.7-1.2-1.4-2.3-3.2-2.6-5.7-0.6-5.2 2.4-8.4 5-10.2 0-1 0.1-2 0.3-2.8-0.8-1.1-1.3-2.4-1.6-4-0.2-1-0.2-1.9-0.2-2.8-2.3-0.9-3.8-2.4-4.8-3.8-0.5-0.4-1-1-1.5-1.8-1.4-1.1-3.2-3-4-6-0.5-1.8-0.7-4.5 0.8-7.3-0.8-1-1.5-2.1-1.9-3.6-0.4-1.2-1.1-4.6 1-8.1-0.8-1-1.3-1.9-1.6-2.6-1.6-1-3-2.6-3.9-4.9 0-0.1-0.1-0.2-0.1-0.3-2.6-0.7-5-2.4-6.5-5.8-0.3-0.7-0.8-2.1-0.8-3.9-1.2-1.1-2-2.4-2.5-3.4-0.7-1.6-2.4-6.7 2.3-11.7-1.6-0.8-3.8-2.2-5.3-5-0.8-1.5-1.2-3-1.2-4.3-3.2-1.1-4.8-3.5-5.4-4.5-1.1-1.9-1.5-3.8-1.4-5.5-1.6-0.7-3-1.9-4.2-3.8-0.6-0.9-1.7-3-1.6-5.9-4.1-0.1-6.5-2.5-7.8-4.3-0.8-1.2-1.7-2.9-1.8-5-0.6-0.5-1.1-0.9-1.5-1.4-0.6-0.5-1.7-1.4-2.7-2.7-1-1.3-3.8-5.9-0.4-11.8-0.8-1.2-1.2-2.5-1.4-3.7-5.3 1.1-8.5-1.7-9.8-3.3-0.6-0.7-1.7-2.2-2.2-4.5-0.9-0.5-1.9-1.2-2.7-2.2-0.2-0.2-0.4-0.4-0.6-0.7-3.8 0.1-6.3-1.9-7.5-3.1-4.7-4.9-2.5-10.7-1.4-13.2 0.1-1.1 0.2-2 0.5-2.9-2.8 1.3-8.3 3.1-13-1.2-0.5-0.4-1.3-1.3-2-2.6-2-0.4-3.6-1.5-4.7-2.4-1.3-1.2-2.2-2.5-2.7-3.8-2.1 0.1-4.3-0.6-6.5-2.4l-0.1-0.1c-2.5-0.3-4.3-1.5-5.1-2.2-1.2-0.9-4.3-4-3.7-9.2-4.4 1.3-7.7-0.7-8.8-1.5-1.2-0.9-2.1-1.9-2.7-2.9-1.3-0.2-2.7-0.8-4.1-1.8-1.3-0.9-4.9-3.9-4.3-9.6-0.9-0.3-1.5-0.7-1.9-1-0.5-0.3-0.9-0.7-1.3-1-3 2-7 3.3-11.5 0.5-1-0.6-3.6-2.6-4.5-6.1-3 0.7-5.6-0.2-7.2-1.2-2.3-1.4-5.7-4.4-4.9-10.5-0.7 0-1.4-0.1-2-0.3-1.2 0-3.3-0.3-5.4-1.4-3.1-1.6-4.6-4-5.1-6.5-4.9 3.8-9.5 2.1-11 1.4-1.2-0.6-3.2-1.8-4.5-4.2-0.6-0.1-1.2-0.3-1.9-0.6-0.7-0.2-1.9-0.4-3.2-1s-2.3-1.3-2.9-1.7c-0.8-0.4-1.4-0.7-1.8-1-0.1-0.1-0.2-0.1-0.3-0.2-0.8-0.3-2.1-1.1-3.3-2.4-3.4 1.4-6.5 0.5-7.6 0-2.4-1-3.9-2.6-4.9-4.1-3.1 2-6.2 1.6-8.6 0.7-2.2-0.8-5.3-2.8-6.3-7.3-1.7 0.4-3.6 0.4-5.8-0.3-1.3-0.4-2.4-1.1-3.2-1.8-1.5 0.3-3.1 0.2-4.8-0.4-4.7-1.5-6.4-4.9-6.9-8.3L663 279l2.2-9.1c0.3-1.2 0.7-2.2 1.2-3-1.4-2-2.4-4.5-1.7-7.9 0.2-1.1 0.8-3 2.2-4.7-3.7-3-3.9-6.7-3.6-9.1 0.3-2.2 1.4-5.5 5.1-7.5-1.3-2.4-1.3-4.6-1.2-5.6 0-0.6 0.1-1.2 0.2-1.8 0-0.3 0.1-0.6 0.1-0.9 0.2-2.4 1-4.2 2.1-5.6-2-1.7-3.7-4.2-3.6-8 0-1.8 0.5-3.3 1.1-4.5-1.2-1.5-2.2-3.6-2.3-6.3 0-1.6 0.3-4.7 2.9-7.3-1-1-1.8-2.2-2.3-3.7-0.7-1.1-1.6-2.9-1.8-5.2-0.1-0.9-0.2-1.8-0.2-2.7-0.1-1-0.1-1.9-0.1-2.5v-0.3c-0.2-2.6 0.2-8.4 8.3-11.3-1.1-1-2.1-2.3-2.7-4-7.3-0.2-9.9-4.3-10.7-7.9-0.2-0.9-0.4-2.2-0.2-3.7-1-1.3-1.6-2.6-1.9-3.7-0.4-1.5-0.5-2.9-0.5-3.7-0.4-1.9-0.2-3.6 0-4.7 0-1.5 0.3-3.4 1.4-5.3 0-0.2-0.1-0.4-0.1-0.6-2-0.8-4.4-2.3-5.9-5.3-0.5-1-1.4-3.3-0.9-6.2 0-0.1-0.1-0.2-0.1-0.3-0.9-0.7-1.7-1.6-2.5-2.7-1-1.6-2.6-5.1-0.8-9.5-2-0.2-4.2-0.9-6.2-2.7-2-1.8-2.8-3.9-3.3-5.4-0.2-0.1-0.4-0.2-0.7-0.4-0.6-0.4-1.2-0.9-1.7-1.3h-0.7c-3.1 5.4-7.9 5.7-10 5.5-1.6-0.1-3.5-0.6-5.3-2-1.5 0.1-2.8-0.1-3.9-0.4-0.5 0.4-1 0.8-1.7 1.1-3.2 1.7-6.1 1.5-8.5 0.5-0.5 1-1.1 2-2 2.9-0.6 0.6-1.2 1.1-1.8 1.5-0.3 0.7-0.8 1.4-1.3 2.1-1.3 1.6-2.7 2.5-3.7 3-0.4 0.3-0.8 0.6-1.1 0.9-0.1 0.2-0.2 0.5-0.4 0.8 1.5 2.6 2.1 5.9 0.2 9.6-0.6 1.2-1.3 2.1-2.1 2.9-0.1 0.5-0.3 1-0.6 1.5-0.4 0.8-0.7 1.4-1 1.9-0.1 0.1-0.2 0.3-0.2 0.4-0.8 1.9-1.9 3.2-3.1 4.1 2.5 3.3 2.1 6.7 1.5 8.9-1.2 4-4 5.9-6.8 6.8 0 0.2-0.1 0.3-0.2 0.5 0.2 0.9 0.3 1.9 0.2 2.9 1.3 1.9 2 4.3 1.4 7.5-0.1 0.8-0.4 1.5-0.6 2.1 0.1 1 0.1 2-0.1 3.2-0.3 1.6-0.8 2.9-1.5 4 0 0.4 0 0.8-0.1 1.2-0.4 2.7-1.9 7-7.9 8.6v0.3c1.5 1.7 2.5 4 2.3 7.1v0.4c1.4 1.6 3.3 4.2 3.2 8 0 1.1-0.3 3.7-2.2 6 0.8 1.3 1.3 3 1.3 5 0 1.6-0.4 4.7-3 7.3 0.4 0.4 0.8 0.9 1.2 1.4 1.6 1.3 3.9 3.9 4.2 7.9 0.2 2.3-0.3 7.8-7.4 10.7 0 1-0.2 1.9-0.4 2.6 2.4 1.5 5.1 3.9 5.7 8l1.9 12.6-7.6-0.7c-2.1 2.6-5.2 5.4-10.1 4.9-0.5 0-1.4-0.2-2.4-0.5-2 1.2-4.1 1.5-6 1.3-2.4-0.2-4.1-1-5.5-2.1-1.3-0.1-2.5-0.4-3.5-0.9-0.6 0.1-1.2 0.1-1.9 0-0.4 0-0.9 0-1.3-0.1-0.5 0-1 0-1.5-0.1h-0.1c-2 1.1-4 1.3-5.5 1.3-0.8 0-1.8-0.2-3-0.6-1 0.2-1.9 0.2-2.5 0.2-1.5 0-4.4-0.5-6.8-2.9-1.2 0.5-2.6 0.8-4.3 0.8-1.9 0-4.6-0.5-6.8-2.7-1.8 0.9-3.5 1-4.4 1-2.8 0-5-0.9-6.5-2.2-1.5 1.9-3.4 2.8-5 3.3-1.1 0.6-2.9 1.3-5.2 1.4-2.6 0.1-4.7-0.7-6.2-1.6-1.3 0.9-2.9 1.4-5 1.6-3.8 0.2-6.4-1.3-8.1-3.3-0.2 0-0.3 0-0.5 0.1-1.4 1.1-3.1 1.9-5.4 2.1-4.3 0.4-7-1.4-8.8-3.8-0.2 0-0.4-0.1-0.6-0.1-1.4 2-3.7 4.1-7.5 4.6-1.4 0.2-5.6 0.3-8.8-3.4l-7.9 1 1.9-12c-4.4-2.3-5.6-5.6-5.9-8.2-2.4-2.4-2.9-5.3-2.7-7.8 0.2-2.2 1-3.8 1.6-5 0-0.1 0-0.2 0.1-0.3 0.2-2.2 0.9-3.8 1.5-4.9 0.1-0.3 0.2-0.6 0.3-0.8-0.7-1.3-1.1-3-1-4.9 0.1-1.8 0.6-4.4 2.6-6.6-1-1-1.8-2.3-2.4-3.8-0.7-1.2-1.7-3.2-1.8-5.8-0.1-4.4 2.3-7.2 3.9-8.7 0.3-0.5 0.7-1 1.1-1.4 0.1-1.4 0.4-2.5 0.7-3.3 0-0.5 0.1-0.9 0.1-1.2 0-0.9 0-1.7 0.2-2.4-2.4-1.3-4.3-3.6-4.9-7.4-0.3-2 0-3.6 0.5-5.1 0-0.1 0-0.2-0.1-0.4-1.7-1.8-2.3-3.9-2.6-5.1-0.7-3.8 0.6-6.6 2.4-8.7-1-1.1-2.2-2.7-2.8-4.9-0.1-0.2-0.1-0.4-0.1-0.6-1-1-1.9-2.4-2.4-4.1-1.3-4.1 0.2-7.3 1.6-9.5-0.3-0.4-0.5-0.9-0.7-1.3-3.1-0.3-6.2-1.7-8.2-5.6-1.8-3.8-1.1-7.1 0.4-9.7-1.7-0.5-4.1-1.6-6-4.1-0.3-0.4-0.7-1.1-1.1-1.8-0.7-0.5-1.3-1-1.8-1.5-1.5-0.4-2.9-1.1-4.3-2.4l-0.2-0.2c-1.8 0.1-3.7-0.3-5.7-1.6-1.6-1-3.8-3-4.5-6.4-0.7 0-1.4 0-2.2-0.2-2.3-0.4-4-1.4-5.3-2.6-0.6 2.6-2.2 5.4-5.8 7-2.5 1.1-4.8 1.1-6.8 0.5 1 4.5-1.1 7.6-2.3 8.9-1.7 2-3.9 3.1-6.4 3.4 0.5 2.1 0.6 4.8-1 7.7-1.3 2.4-4.3 5.8-10.5 5 1.4 1.5 2.1 3.1 2.4 4.6 0.9 1.8 1.9 4.9 0.7 8.5-0.9 2.7-2.5 4.4-4.3 5.5 0.9 1.8 1.4 4.1 0.7 6.9-0.2 0.6-0.4 1.5-0.9 2.4 0.1 1.1-0.1 2-0.2 2.7-0.7 3.4-2.6 5.4-4.7 6.7-0.1 0.3-0.3 0.7-0.4 1 0 0.7 0 1.5-0.1 2.3-0.1 0.7-0.3 1.7-0.8 2.8 0.6 1.4 1 3.2 0.7 5.3-0.1 1.1-0.5 2.8-1.6 4.6 1.6 2.4 1.8 4.9 1.7 6.3-0.1 1.8-0.8 5.4-4.5 7.8v0.2c0 0.6-0.1 1.2-0.2 1.8 1.9 2.2 2.3 4.7 2.3 6.5 0 1.4-0.3 4-2.2 6.4 0.5 1.1 1 2.6 1.1 4.5s-0.3 3.4-0.9 4.8c2.6 1.4 5.3 3.9 5.7 8.4 0.2 2.2-0.1 7.1-5.9 10.1-0.1 0.5-0.3 0.9-0.5 1.3v0.1c0.5 3.5-0.6 6-2.3 7.9 1.3 1.2 2.5 2.9 3.1 5.2 0.8 0.7 1.6 1.6 2.2 2.7 2.7 1 5.4 3.1 6.3 7.1 1.8 7.2-3.9 11-7.2 12.9-0.5 1.1-1.1 2.1-1.9 2.9-0.6 1-1.5 2.4-3.1 3.6-0.2 1.9-0.8 3.4-1.6 4.5-0.7 2.1-2.4 5.6-6.6 7.3-1.7 0.7-3.3 0.8-4.8 0.7-0.3 0.1-0.5 0.2-0.8 0.3-1.9 0.7-3.6 0.9-5.1 0.7-1 1.6-2.5 3.2-4.9 4.2-3.9 1.6-7.3 0.5-9.3-0.4-0.7 0.6-1.5 1.1-2.4 1.5-1.8 0.8-3.6 1-4.6 1.1-0.4 0.1-0.7 0.2-1.1 0.2-0.7 4.5-3.9 6.6-5.5 7.5-1.1 0.5-3.9 1.6-7.3 0.6-0.4 0.3-0.9 0.5-1.3 0.8-2.7 1.4-5.3 1.3-6.9 1.1h-1.1c-1.1 2.8-3.2 4.3-4.5 5-0.8 0.4-1.5 0.8-2.1 1-0.2 0.1-0.3 0.1-0.5 0.2-3.2 1.8-6.1 1.5-8.5 0.7-0.8 0.3-1.5 0.4-2.2 0.5 1.3 6.4-2.1 9.6-4.5 11.1-2.5 1.5-4.9 1.8-7 1.4-0.7 1.1-1.7 2.3-3.2 3.2-2.9 1.9-5.6 2-8 1.4-0.8 0.4-1.8 0.7-2.9 0.8-0.8 3.2-3 5-3.9 5.7h-0.1c0.3 4.4-2.1 7.1-4 8.4-3 2.3-6.2 2.3-8.1 2.1-1.3 0.2-2.8 0.1-4.5-0.4-1.2 0.5-2.7 0.9-4.4 0.8-0.6 1.3-1.5 2.6-2.8 3.7-1.5 1.3-3 1.9-4.5 2.2-0.3 2-1.3 4-3.3 5.8-0.2 0.2-0.6 0.5-1.1 0.8 1 3.2 1.6 7.8-2.5 11.6-3.1 2.9-6.4 3.2-9.3 2.5-0.5 2.3-1.8 4-2.7 4.9-0.7 0.7-1.9 1.8-3.7 2.4-0.6 1.6-1.5 2.7-2.1 3.4-1.3 1.4-2.7 2.3-4.2 2.8-0.2 1.9-0.8 4-2.5 6-0.9 1.1-1.9 1.9-3 2.4 0.2 2.3-0.2 4.9-2.3 7.4-1.1 1.3-2.9 3-5.6 3.5 0 0 0 0.1-0.1 0.1-0.3 1-0.9 2.6-2.1 4.2-3.4 4.5-7.9 4.5-11.4 3.6-0.5 0.3-1.1 0.5-1.6 0.7-0.5 0.7-1 1.2-1.5 1.7 2.4 4.7 0.6 8.5-0.5 10.2-0.9 1.4-1.8 2.3-2.4 2.8-0.8 1.1-1.8 1.9-2.7 2.5 0.1 1.6 0 4.1-1.5 6.6-0.6 1-1.2 1.7-1.9 2.4 1.8 3.9 0.5 7.3-0.3 8.8-0.8 1.6-2.4 3.7-5.2 4.7l-0.6 1.5c-0.1 0.3-0.3 0.6-0.4 0.8 0 2.1-0.6 3.7-0.9 4.5-0.9 2-2.2 3.3-3.4 4.2 0.5 2.7-0.2 4.9-0.6 5.8-0.3 0.6-0.8 1.7-1.7 2.8 0.3 2-0.1 3.7-0.6 5s-1.1 2.3-1.9 3.2c-0.1 0.5-0.2 1.1-0.5 1.7-0.4 1.1-1.2 2.8-2.8 4.2 0 1-0.2 2.1-0.5 3.2-0.7 2.2-1.9 3.8-3.3 4.9 0.7 2.4 0.3 4.5 0 5.4-0.9 3.3-3.1 5.3-4.9 6.4 0 0.1-0.1 0.2-0.1 0.3 0.7 1.7 1 3.7 0.5 6.1-0.1 0.5-0.3 1.2-0.6 1.9 0.9 1.7 1.4 3.8 0.9 6.4-0.5 2.6-1.7 4.5-3.2 5.8 0 0.6 0 1.2-0.1 1.8-0.1 0.7-0.3 1.4-0.5 2 0.3 1.5 0.2 2.7 0.2 3.4-0.5 4.1-3.1 6.5-4.7 7.7-0.4 0.5-0.8 0.9-1.4 1.4 2.9 1.6 6.1 4.5 5.8 9.8 0 0.9-0.2 2.4-0.9 3.9 0.8 1.8 0.9 3.4 0.9 4.2 0 1.5-0.3 3.6-1.7 5.5 0.1 0.4 0.2 0.8 0.2 1.3 2 2 2.6 4.4 2.7 6.6 0.2 3.5-1.3 6-2.7 7.6 0 0.2 0.1 0.4 0.1 0.6 0 0.6 0.1 1.5-0.1 2.4 1.2 1.4 2.1 3.1 2.3 5.5 0.3 2.8-0.4 5-1.5 6.7 1.9 1.3 3.5 3.4 4 6.5 0.3 1.5 0.6 6.2-3.8 9.7 3.4 1.8 4.5 4.9 4.9 6.5 0.1 0.4 0.2 0.8 0.2 1.1 1.8 1.2 3.6 3.1 4.4 6 0.4 1.4 0.4 2.7 0.4 3.8 0.9 1 1.6 2.2 2.1 3.8 1.8 5.7-1.5 9.6-4.2 11.8 6.1 0.5 8.4 4.9 9 6.5 0.2 0.6 0.4 1.1 0.6 1.7 0.1 0.3 0.2 0.6 0.3 0.8 0.7 1.8 0.9 3.4 0.9 4.4 0.4 1.6 0.4 3 0.1 4.3 1.3 0.9 2.5 2.2 3.4 4.1 0.2 0.5 0.5 1.1 0.7 1.9 1.7 0.8 3.3 2.3 4.5 4.6 1 1.9 1.9 5 0.2 8.6 0.2 0.6 0.3 1.4 0.3 2.2 2 0.7 4 2 5.4 4.5 0.5 0.9 1.6 3.1 1.3 5.9 1 0.5 1.9 1.2 2.8 2.2 2.4 0.4 4.8 1.6 6.6 4.4 1 1.6 1.5 3.2 1.7 4.7 0.5 0.4 1 0.8 1.3 1.1 0.8 0.6 2.1 1.6 3.2 3.1 1.5 2 1.9 4.1 1.9 6 1.3 0.6 2.7 1.6 3.9 3.2 0.7 0.9 1.6 2.4 2 4.5 2.8 0.6 4.6 2.4 5.5 3.4 0.5 0.6 0.9 1.2 1.2 1.8 0.9 0.5 1.7 1.2 2.5 2.2 0.5 0.6 1.4 1.8 2 3.5 1.2 0.5 2.4 1.3 3.5 2.6 0.9 1 2.2 2.8 2.5 5.3 0.5 0.4 1.1 0.8 1.6 1.3h0.1c0.6 0.4 1.5 1.1 2.5 2.1 0.3 0.3 0.7 0.7 1 1.2 1.4 0.6 2.5 1.5 3.3 2.3s2.6 3 2.9 6.3c2.3-0.1 5 0.5 7.4 2.8 2.8 2.6 3.4 5.6 3.2 8.3 0.8 1.1 1.3 2.3 1.6 3.2 2.7-0.6 5.7-0.4 8.7 2.1 1.8 1.5 4.1 4.3 3.5 8.8 1.1 0.5 2 1 2.4 1.4 0.7 0.5 1.3 1.1 1.7 1.7 2.9-1.1 6.4-1.4 10 1.2 0.8 0.6 2.1 1.7 3 3.4 1.7 0.4 3 1.2 3.6 1.6 1.3 0.9 2.2 1.9 2.8 3 1.3 0.2 2.6 0.7 4 1.7 0.8 0.6 2.6 2 3.6 4.4 1.1 0.7 2.9 2.2 3.8 4.7 0.8 0.3 1.5 0.6 2.3 1.1 0.2 0.2 0.5 0.3 0.8 0.6 2 0.2 3.5 0.9 4.4 1.5 1.3 0.8 4.8 3.4 4.9 8.8 1.7-0.1 3.5 0.3 5.3 1.4 0.9 0.5 1.6 1.1 2.2 1.7 1.8-1 3.4-1.3 4.9-1.3 1.8-0.4 4.8-0.8 8 0.9 1.1 0.6 2.8 1.7 4 3.8 0.1 0 0.2 0.1 0.2 0.1 1.1 0.6 2 1.3 2.8 2 1.5-0.1 3.2 0.2 4.9 1.1 3.4 1.6 4.9 4.4 5.5 6.8 1.5-0.3 3.2-0.3 5 0.2 2.1-0.8 4.6-0.9 7.4 0.3 3.4 1.5 5 3.8 5.7 6.4 1.1 0.1 2.2 0.3 3.4 0.8 0.3 0.1 0.5 0.2 0.7 0.3 2.2-1.2 5-1.7 8.2-0.4 1.6 0.6 3.6 1.8 5 4 1.5-0.3 3.2-0.1 5.1 0.5 0.7 0.3 2.2 0.9 3.5 2.2 1.8-0.2 3.4 0.2 4.3 0.5 2.4 0.8 7.8 3.7 6.7 12.7 2.1-1.9 5.7-4.1 10.5-2.7 4.1 1.2 6 4.2 6.9 6.6 0.4 0.1 0.8 0.2 1.1 0.4 2-1.2 4.6-1.9 7.8-1 1.5 0.4 2.7 1.1 3.8 1.8 3-1.9 6.1-1.6 7.6-1.2 2.2 0.5 3.8 1.5 5 2.7 2.6-1.1 5-0.8 6-0.5 2.6 0.6 4.3 1.8 5.6 3.3 3.3-2.8 7.1-2.5 8.4-2.2 4.6 0.9 6.9 4.3 7.9 6.3 0.1 0.1 0.3 0.3 0.4 0.5 1.9-1.6 4.5-2.6 7.9-2.1 1.3 0.2 2.4 0.6 3.3 1.1 1.4-0.5 3.1-0.8 5-0.5 1 0.1 3.2 0.6 5.2 2.3 1.9-2.2 4.8-4.1 9-3.7 2.9 0.3 5 1.6 6.4 3.2 1.3 0.3 2.4 0.7 3.3 1.3 1.1-0.3 2.3-0.5 3.6-0.4 1.5-0.8 3.5-1.4 5.9-1.2 5.3 0.4 7.9 4.2 9.1 6.9 0.9 0.1 1.6 0.4 2.3 0.7 1.5-1.7 3.7-3.1 6.7-3.3 0.9-0.2 2.3-0.5 4-0.5 1.7 0.1 4.8 0.6 7.2 3.4 2.7-5.9 7.9-6.5 9.5-6.5 0.9 0 1.9 0.1 3 0.4 0.9-0.2 1.8-0.3 2.6-0.3h2.9c2 0 4.7 0.5 7 2.8 2.2-2.3 4.9-2.9 6.8-2.9 1.4 0 3.2 0.1 5 1.1 1.5-1.3 3.4-2.3 6.1-2.4 6.3-0.3 9.4 4.5 10.7 7 0.3 0.2 0.5 0.4 0.7 0.6 2.6 1.1 3.2 1.5 3.7 1.9z m-215.5-0.9z m9.9-1.8z m122.5-1c0.4 0 1.2 0.1 2 0.4-0.7-0.2-1.3-0.4-2-0.4z m67.4-0.3c-0.1 0-0.1 0 0 0z m-92.6-2.2zM328 891.8h0.1-0.1z m-12.1-0.9z m296.6-0.6c-0.4 0-0.9 0.1-1.3 0.1 0.3 0 0.7-0.1 1.3-0.1z m7-1.3c0 0.1-0.1 0.1 0 0-0.1 0.1 0 0.1 0 0z m-14.4-0.6h-0.2 0.2z m-204.2-0.2s0.1 0 0 0c0.1 0 0 0 0 0z m-22-4.6z m-13.8-3z m-2.6-1.4zM724 878z m2.2-2.7c-0.1 0.1-0.1 0.1 0 0z m21.3-9.3z m0 0z m-494.9-7.9s0.1 0.1 0 0c0.1 0.1 0 0 0 0z m-9.7-0.8c0.1 0 0.1 0 0 0 0.1 0 0.1 0 0 0z m0 0z m539.1-1.8z m-57.9-5.8z m-433.5-2.1c0.4 0.2 1 0.5 1.6 1-0.5-0.3-1-0.7-1.6-1z m-32.7-10.4z m561.9-5.5c-0.1 0.1 0 0.1 0 0z m-608.7-1.8c0.5 0.4 1.1 0.7 1.6 0.9-0.7-0.3-1.2-0.7-1.6-0.9z m611.6 0.7z m-13.4-27.3c-0.6 0.4-1.1 0.9-1.5 1.4 0.6-0.7 1.1-1.2 1.5-1.4zM181.9 800l0.2 0.2-0.2-0.2zM867 789.9l-0.2 0.2 0.2-0.2z m-679.3-12.6z m-11.6-15.6z m727.1-11.8c0 0.1-0.1 0.1 0 0-0.1 0.1 0 0.1 0 0z m-751-14.5z m0-0.1z m-4.5-3.4z m740.3-3.3c0 0.1 0 0.1 0 0 0 0.1 0 0.1 0 0z m-741-3z m-40-2.4c0.1 0.2 0.2 0.5 0.4 0.7-0.2-0.2-0.3-0.4-0.4-0.7z m821.3-31.4c-0.1 0-0.1 0 0 0-0.1 0-0.1 0 0 0z m-836.8-6.4c0.1 0.8 0.3 1.5 0.7 2.3-0.2-0.5-0.5-1.3-0.7-2.3z m841.6-10.8c0 0.1 0 0.1 0 0 0 0.1 0 0.1 0 0z m11.8-8.4z m-840-25.1z m845.9-1.6z m-858-4.1s0 0.1 0 0c0 0.1 0 0 0 0z m0 0z m855.3-11.7z m-21.3-0.8zM94.6 618z m835.8-2.9z m24.8-8.6c0 0.1 0 0.1 0 0 0 0.1 0 0.1 0 0z m-857-13.4z m0-0.1z m0-0.1c0 0.1 0 0.1 0 0 0 0.1 0 0.1 0 0z m831.6-13.4c0 0.6 0 1.1 0.1 1.6-0.1-0.7-0.1-1.3-0.1-1.6z m-2-5.5z m24.7-9.5s0 0.1 0 0c0 0.1 0 0 0 0zM97.1 552.2c0 0.3-0.1 0.8-0.2 1.3 0.1-0.4 0.2-0.8 0.2-1.3z m830.9 0.3z m0-0.1z m0 0z m-824.8-32.3z m1.2-2.5z m839.8-12z m0-0.1z m0.6-9.4c0.1 0.3 0.2 0.6 0.3 1.1-0.1-0.4-0.1-0.7-0.3-1.1z m-824.7-19z m0.1 0z m-29.3-0.4c0 0.1-0.1 0.2-0.1 0.2 0.1-0.1 0.1-0.1 0.1-0.2z m841.3-4.8c0.2 0.5 0.5 1.2 0.7 2.2-0.2-0.7-0.4-1.5-0.7-2.2z m-29.4-8.4z m-803.7-9.2c-0.3 0.6-0.6 1.3-0.7 1.9 0.2-0.8 0.5-1.5 0.7-1.9z m33.1-4.8z m0.4-0.8c-0.1 0.3-0.3 0.5-0.4 0.7 0.2-0.2 0.3-0.4 0.4-0.7z m789.6-1.9c0 0.1 0 0.1 0 0 0 0.1 0 0.1 0 0z m-785.4-4.2z m783.1-2.8c0.3 0.4 0.5 0.8 0.7 1-0.2-0.4-0.4-0.7-0.7-1z m-25.6-34.2c-0.2-0.3-0.3-0.5-0.5-0.8 0.2 0.2 0.3 0.5 0.5 0.8z m-762.1-4.9c-0.2 0.3-0.4 0.5-0.5 0.8 0.2-0.4 0.3-0.6 0.5-0.8z m717.2-10.8c0 0.1 0.1 0.1 0 0 0.1 0.1 0 0.1 0 0z m1-4.8s0 0.1 0 0c0 0.1 0 0 0 0z m0 0z m-1.9-6z m-659.3-0.4z m650.5-2.6z m19.4-16.5z m-640.2-1.4c-0.3 0.2-0.7 0.5-1.1 0.7 0.3-0.2 0.7-0.4 1.1-0.7z m632.7-3.5c0.3 0.3 0.8 0.8 1.3 1.5-0.3-0.5-0.8-1-1.3-1.5z m-669.9-5.9z m647-8.4c0.3 0.2 0.7 0.6 1.2 1.1-0.4-0.4-0.8-0.8-1.2-1.1z m-637.6-4c-0.1 0-0.1 0.1-0.2 0.1 0.1 0 0.2-0.1 0.2-0.1z m562.4-17.3c0 0.1 0 0.1 0 0 0 0.1 0 0.1 0 0z m-475.2-1.7l-0.6 0.3c0.1-0.1 0.4-0.2 0.6-0.3z m488.8-0.3c0.1 0 0.2 0.1 0.2 0.1s-0.1 0-0.2-0.1z m0 0z m24.4-0.8z m-493.1-8.7z m16-5.4z m0 0z m421.4-11.8z m-7.8-3.8c0 0.1 0 0.1 0 0 0 0.1 0 0.1 0 0z m-426.4-0.1z m0 0z m439.8-1.2c0 0.1 0 0.1 0 0 0 0.1 0 0.1 0 0z m-52.6-0.7z m-0.1 0c0.1 0 0.1 0 0 0 0.1 0 0.1 0 0 0z m-391.8-1.4z m11.3-3.5z m34.5-5.9z m-0.1-0.4c0 0.1 0.1 0.3 0.1 0.4 0-0.1 0-0.3-0.1-0.4z m144-9.4h1.1c-0.3 0.1-0.7 0.1-1.1 0z m1.1 0z m-36.8-2.8z m-113.3-3.6z m235.6-10c0 0.1 0 0.1 0 0 0 0.1 0 0.1 0 0z m-1-5.5z m-91.6-6c-0.2 0-0.4 0-0.6 0.1 0.2 0 0.4-0.1 0.6-0.1z m0 0z m69.4-1.9v0z m-40 0.3z m0 0z m0 0z m0 0z m0 0z m3-1z m-17.8-0.4z m0 0z m82.9-5.7z m0 0z m113.5-7.9v0.1-0.1z m-351.8-1.1v0z m120.5-4.7z m-28.7-5.7z m236.4 0z m-119.4-4.1v0.5c-0.1-0.2 0-0.3 0-0.5z m-100.3-4.8z m0-0.1z m244.8-0.3z m-28.2-7z m-1.6-8z m-320.1-3.1v0z m0 0z m115.1-0.4z m-3-2.7z m216.9-8.9s0 0.1 0 0c0 0.1 0 0 0 0z m0 0z m19.7-3.5c0 0.1 0 0.1 0 0 0 0.1 0 0.1 0 0z m-1.2-5.9z m0-0.1z m-35-8.8z m0.1-3.1c0 0.1 0.1 0.2 0.1 0.3 0 0 0-0.1-0.1-0.3z m-231.3-1.5z m-71.3-0.7z m301-10.5c0 0.1 0 0.1 0 0 0 0.1 0 0.1 0 0z m27.5-5.4z m-240.6-5.5z m-80.8-0.1z m284.2-12.3z m-207-0.5c0.1 0 0.1 0 0 0 0.1 0 0.1 0 0 0z m202.1-1.2z m0 0z m-33.3-3.6z m2.3-0.8z m-230.7-1.7z m291.6-1.7z m-290-0.4s-0.1 0 0 0c-0.1 0 0 0 0 0z m-32-6.4z m0.1-0.1c-0.1 0-0.1 0.1 0 0-0.1 0.1-0.1 0 0 0z m242.3-5.1z m22.4-7.6c-0.2 0-0.4 0.1-0.7 0.1 0.1 0 0.4 0 0.7-0.1z m18.4-1.8z m-1.1-0.1c0.5 0 0.9 0.1 1.1 0.1-0.4-0.1-0.8-0.1-1.1-0.1z" p-id="14873"></path><path d="M364.7 199.1a20.5 63.4 0 1 0 41 0 20.5 63.4 0 1 0-41 0Z" fill="#FFADA3" p-id="14874"></path><path d="M604.2 198.7a20.5 63.4 0 1 0 41 0 20.5 63.4 0 1 0-41 0Z" fill="#FFADA3" p-id="14875"></path><path d="M364.7 515.1m-29.3 0a29.3 29.3 0 1 0 58.6 0 29.3 29.3 0 1 0-58.6 0Z" p-id="14876"></path><path d="M624.7 515.1m-29.3 0a29.3 29.3 0 1 0 58.6 0 29.3 29.3 0 1 0-58.6 0Z" p-id="14877"></path><path d="M529.5 550.9h-69.7c-9.9 0-18-8.1-18-18s8.1-18 18-18h69.7c9.9 0 18 8.1 18 18 0 10-8.1 18-18 18z" p-id="14878"></path><path d="M484.7 544.5h20v125.4h-20z" p-id="14879"></path><path d="M568.2 666.6c0-12.2-21.6-30-73.5-30s-73.5 17.8-73.5 30 23.4 2.8 75.3 2.8 71.7 9.4 71.7-2.8z" p-id="14880"></path></svg>